<?xml version="1.0" encoding="utf-8"?>
<!-- Generator: Adobe Illustrator 24.3.0, SVG Export Plug-In . SVG Version: 6.00 Build 0)  -->
<svg version="1.1" id="Calque_1" xmlns="http://www.w3.org/2000/svg" xmlns:xlink="http://www.w3.org/1999/xlink" x="0px" y="0px"
	 viewBox="0 0 1280 1280" style="enable-background:new 0 0 1280 1280;" xml:space="preserve">
<style type="text/css">
	.st0{fill:none;stroke:#A8A8A8;stroke-miterlimit:10;}
</style>
<g transform="translate(0.000000,1280.000000) scale(0.100000,-0.100000)">
	<path class="st0" d="M4862,11478c-66-107-135-379-217-857c-24-141-69-389-99-551c-97-511-116-675-116-1010c0-247,12-385,38-444
		c11-22,38-70,60-105c23-35,42-73,42-83c0-51-188-64-391-27c-63,11-148,23-190,26c-65,5-77,3-82-11c-9-23,10-65,73-166
		c67-107,84-157,114-343c31-185,42-317,56-642c13-304,24-433,51-590c42-239,41-277-5-324c-26-25-30-26-144-25c-95,0-141,6-247,31
		c-484,117-1161,134-1690,43c-299-52-610-151-853-273c-130-66-172-90-172-99c0-14,113-99,223-167c62-38,134-88,160-111
		c92-82,313-396,731-1043c162-251,356-545,431-652c159-229,196-296,203-365c9-94-28-155-206-345c-129-137-149-164-131-176
		c21-13,121-42,392-115c543-146,657-209,696-385c14-60,0-120-65-294c-30-82-58-170-61-197l-6-48h57c31,0,174,12,319,27
		c327,33,670,38,780,10c103-26,125-41,155-105c25-52,27-67,26-177c0-103-4-130-26-187c-14-38-24-68-21-68c15,0,467,207,604,276
		c207,105,304,166,444,278c253,202,438,308,1017,585c465,222,512,242,567,244l44,2l35-70c19-38,77-168,129-290
		c52-121,166-372,254-557c256-544,348-787,357-941l5-89l26,7c38,9,116,62,151,101c36,42,38,70,10,179c-36,139-123,320-375,775
		c-161,292-250,467-294,580c-39,102-101,301-101,325c0,7,9,20,21,31c19,17,38,19,178,19c86,0,246-6,356-14c216-15,660-10,835,9
		c231,25,292,32,410,51c433,70,863,187,1245,341c157,63,441,195,434,202c-2,2-40,18-84,35c-184,73-347,196-394,297
		c-20,41-23,59-18,116c15,172,123,322,432,596c256,227,369,347,434,463c46,82,43,89-30,89c-153,0-374,54-465,115
		c-64,42-86,86-86,169c2,101,97,457,222,829c64,191,90,299,90,371v45l-32-6c-18-3-62-17-98-30c-160-60-223-67-291-32
		c-50,25-50,22,20,217c52,145,64,192,81,312c16,122,30,615,30,1065c0,304,4,466,15,585c23,249,29,480,16,590c-10,79-51,234-67,249
		c-2,2-57-47-121-110c-168-164-346-303-863-679c-414-300-563-425-821-687c-188-191-284-300-486-559c-145-184-177-217-220-216
		c-58,0-99,70-215,372c-118,307-210,480-385,727c-140,198-385,467-668,734c-104,98-123,130-235,394c-79,186-128,288-167,347
		c-21,31-32,38-57,38c-27,0-43-12-97-68c-50-54-74-71-111-81c-43-12-50-11-100,12c-97,45-379,261-604,464c-220,198-485,479-574,608
		c-19,27-66,120-106,206c-74,163-130,259-151,259C4887,11510,4873,11495,4862,11478z"/>
</g>
</svg>
