<?xml version="1.0" encoding="utf-8"?>
<!-- Generator: Adobe Illustrator 24.3.0, SVG Export Plug-In . SVG Version: 6.00 Build 0)  -->
<svg version="1.1" id="Calque_1" xmlns="http://www.w3.org/2000/svg" xmlns:xlink="http://www.w3.org/1999/xlink" x="0px" y="0px"
	 viewBox="0 0 1280 1258" style="enable-background:new 0 0 1280 1258;" xml:space="preserve">
<path d="M845,2c-7.4,0.4-18.7,1.5-25,2.4s-13.5,1.9-16,2.1c-2.5,0.3-7.4,1.3-11,2.1c-3.6,0.9-7.6,1.8-9,2
	c-16.8,2.9-50.2,13.5-73.6,23.5c-11,4.6-33.7,15.8-39.3,19.3c-2,1.3-7,4.3-11.1,6.7c-16.5,9.6-43.9,29.4-56,40.3
	c-12,10.8-43.3,43-49,50.2c-0.8,1.1-4,5.1-7,8.9c-3.1,3.9-7,9-8.6,11.5c-1.7,2.5-6,8.8-9.6,14c-5.7,8.3-24.8,40.9-24.8,42.3
	c0,0.3-1.7,4.3-3.9,8.9c-13.1,28.2-19.5,46.4-27.3,77.1c-3.7,14.9-5.2,23.5-7.8,44.2c-2.7,22.6-4,39.2-4,52.5c0,16.2,3.7,58.5,6,69
	c0.6,2.5,1.7,7.9,2.5,12c2.4,12,5.2,24.1,7,30c5.9,19.6,11.1,34.4,16.4,46.5c1,2.2,2.4,5.6,3.1,7.5c5.7,14.5,25.7,49.7,39.8,70.1
	c17.7,25.5,52.3,62.8,73.6,79.4c2.2,1.6,6.4,5.1,9.5,7.6c14.3,11.8,46.2,31.9,67.6,42.6c26.6,13.4,63,26.7,86.5,31.8
	c0.8,0.2,4.4,1,8,1.9c3.6,0.8,7.9,1.7,9.5,2c12.2,2.2,21.7,3.7,23.6,3.8c1.3,0,4.9,0.5,7.9,1c13.5,2.2,47.6,3.3,67.7,2.1
	c10.9-0.6,22.1-1.4,24.8-1.8c2.8-0.4,7-0.9,9.5-1.1c9.5-1,22.5-3.4,42.5-7.9c7-1.6,22.8-6,27-7.5c2.8-1,6.8-2.4,9-3.1
	c4.1-1.2,20.9-7.7,28-10.8c2.2-1,5.6-2.4,7.5-3.2c6.3-2.4,30.2-14.9,40.9-21.4c14.8-9,37.7-24.7,43.5-30c0.6-0.6,3.6-3,6.6-5.3
	c15.9-12.4,42.6-39,55-54.8c1.7-2.1,4.8-5.9,6.8-8.3c2-2.4,6.3-8,9.4-12.5c3.1-4.5,6.5-9.2,7.5-10.6c3.7-4.9,12.3-18.9,12.3-19.9
	c0-0.6,0.5-1.1,1-1.1c0.6,0,1-0.4,1-1c0-0.5,1.5-3.3,3.3-6.2c3.2-5,18.7-35.8,18.7-37.1c0-0.4,1.1-3,2.4-5.9s3.8-9.4,5.6-14.3
	c1.8-5,3.7-9.9,4.1-11c1.6-3.4,8.1-26,11-38c7.4-30,12.4-79.6,10.7-106.5c-1.4-23.3-2.9-41.4-3.8-46c-0.5-2.5-1.4-7.9-2-12
	c-0.6-4.1-2-11.3-3.1-16c-1.1-4.7-2.9-12.3-4-17c-1.8-7.4-4.4-16.1-9.4-31.5c-1.9-5.7-6.3-17.2-8.5-22c-1-2.2-2.8-6.3-4-9
	c-16.7-37.9-36.5-69.1-64.8-102.5c-6.3-7.5-33.2-34.4-41.1-41.1c-3.5-3-6.9-5.9-7.5-6.4c-2.9-2.6-12.7-10.1-25.4-19.2
	c-10.2-7.2-40.7-25.5-50.7-30.3c-3.8-1.8-9.7-4.6-13-6.2c-19.4-9.6-62.7-24.3-83.6-28.3c-4.4-0.9-13.4-2.6-15.4-3
	c-5.8-1.2-8.8-1.6-17.5-2.6c-5.2-0.5-12.9-1.5-17-2C897.9,1.5,861.6,1,845,2z M899,52.5c20,1.8,32.3,3.6,47.8,7.1
	c154,34.5,267.1,163.7,280.3,320.3c1.5,17.7,0.6,60.1-1.5,75.5c-5.7,40.1-15.9,74.3-32.5,109.1c-42.8,89.5-124,159.4-218.6,188
	c-50.1,15.1-104.4,19.3-155.5,11.9c-143.7-20.8-260.8-126.2-296.5-266.9c-8.3-32.8-10.9-56.8-10.2-95c0.7-34.8,3.8-58.6,11.3-86.3
	c22.5-83,74.8-156,146.6-204.3C736.6,67.1,820.3,45.4,899,52.5z"/>
<path d="M495.3,634.4c-15.4,5-24.3,17-24.3,32.6c0,9.1,2.8,16.4,8.8,23.1l4.6,5.2L471,708.1c-7.4,7.1-13.8,12.8-14.2,12.9
	c-0.4,0-4.5-3.9-9.2-8.8l-8.5-8.7l-17.8,17.7c-9.8,9.7-100.8,99.7-202.1,200.1L34.8,1103.7l-5,0.6c-25.1,3-38.3,33.5-23.1,53.4
	c1.9,2.5,22.2,24.6,45,48.9c37.5,40.1,42.2,44.7,47.7,47.4c22.8,11.2,48.7-4.6,48.7-29.7v-6.2l149.7-148.2
	c82.3-81.6,172.9-171.3,201.2-199.6l51.5-51.3l-9.7-9.7l-9.7-9.8l13.5-12.6l13.5-12.6l3.7,3.5c6.4,6.1,13.4,8.7,23.2,8.7
	c7.1,0,9.4-0.4,14.1-2.6c19.4-9.1,25.8-34,13.1-50.7c-1.9-2.6-13.7-15.5-26.1-28.7c-12.5-13.2-31.1-33.1-41.5-44.3
	c-16.2-17.3-19.8-20.7-25.1-23.3C512.1,633.3,501.9,632.2,495.3,634.4z"/>
</svg>
