<?xml version="1.0" encoding="utf-8"?>
<!-- Generator: Adobe Illustrator 24.3.0, SVG Export Plug-In . SVG Version: 6.00 Build 0)  -->
<svg version="1.1"
	 id="svg2" inkscape:output_extension="org.inkscape.output.svg.inkscape" inkscape:version="0.45.1" sodipodi:docbase="/mnt/photos/Vectoriel/Héraldique/Meubles" sodipodi:docname="Arbre non-arraché.svg" sodipodi:version="0.32" xmlns:cc="http://web.resource.org/cc/" xmlns:dc="http://purl.org/dc/elements/1.1/" xmlns:inkscape="http://www.inkscape.org/namespaces/inkscape" xmlns:rdf="http://www.w3.org/1999/02/22-rdf-syntax-ns#" xmlns:sodipodi="http://sodipodi.sourceforge.net/DTD/sodipodi-0.dtd" xmlns:svg="http://www.w3.org/2000/svg"
	 xmlns="http://www.w3.org/2000/svg" xmlns:xlink="http://www.w3.org/1999/xlink" x="0px" y="0px" viewBox="0 0 225 305"
	 style="enable-background:new 0 0 225 305;" xml:space="preserve">
<style type="text/css">
	.st0{fill-rule:evenodd;clip-rule:evenodd;fill:#604100;}
	.st1{fill-rule:evenodd;clip-rule:evenodd;fill:#659933;}
</style>
<sodipodi:namedview  bordercolor="#666666" borderopacity="1.0" gridtolerance="10.0" guidetolerance="10.0" id="base" inkscape:current-layer="g7256" inkscape:cx="148.29206" inkscape:cy="179.86599" inkscape:pageopacity="0.0" inkscape:pageshadow="2" inkscape:window-height="739" inkscape:window-width="1016" inkscape:window-x="0" inkscape:window-y="0" inkscape:zoom="2.0169931" objecttolerance="10.0" pagecolor="#ffffff">
	</sodipodi:namedview>
<g id="layer1">
	<g id="g7256" transform="translate(-17.58058,-735.9956)">
		<path id="path1910" sodipodi:nodetypes="cccccccccccccccc" class="st0" d="M103.3,872.9l-6.6,12.8l14.7,13.7l3.3,67.2L108,979
			l30.7-0.6l14.1-0.2c-10.4-14.4-10.5-50.6-11.2-74.5c6.4-6.3,11.9-9.8,17.5-13.7l-9.9-11.4l-9,8.5l0.5-15.1l-10.4,12.8l-8-16.1
			l-4.3,18.5L103.3,872.9z"/>
		<path id="path4587" class="st1" d="M108.8,877.3l-4-0.4l2.7,9.9l-5.8-1.3l-2.7,6.3l-5.4-0.4l-3.1,5.8l-5.8,2.7l-4.9-3.1l-7.2,5.4
			l-0.9-5.4l-3.6,3.6l-1.3-2.7c-1.2,3.6-3.4,3.2-5.4,3.6l-0.9-4c-2.1,2.1-4.3,4.1-7.2,4.5l-0.4-3.6l-4.9,3.6l-0.4-5.4h-3.6v-4.5
			l-2.2-0.9c-0.4-2.9,2-5.1,4.9-7.2h-5.4l4.9-5.8c-3.4,1.2-6.9,2.9-10.3,5.8l-2.2-3.6l-2.2,1.8l-4.9,0.4c-2-2.5-1-5.1,1.8-7.6
			c-1.3-2.2,0.7-4.5,2.7-6.7l-3.6-0.4c0.8-1.9,1.1-3.9,7.6-5.8l-5.4-3.6c4.3,0.4,8.7,0.4,12.1,4l0.4-4.5l4.5,3.6l1.3-2.2l3.1-2.7
			l-4.9-1.3l4-4.5l-7.6,3.6l-2.2-4.5l-4.5,4.9l-3.1-4.9l-7.6,1.3l3.6-4.5l-5.4-1.8l3.6-1.8l-1.3-2.2l6.7,0.9l-0.9-4l6.3-1.3h-8.5
			l0.9-3.1H22l3.6-5.8l-2.7-2.2l4.9-3.1v-4.9l5.4,1.3l-0.9-4.9l7.6,2.7l-1.8-5.4h7.2l0.4-2.2l-3.1-0.9l1.3-2.7l-5.4,2.7l-1.3-3.6
			l-4.9,2.2l-3.1-3.1l-4.5,0.4V800h4.5l0.9-3.6l4,1.8l6.3-1.8l-4.9-3.1l6.7-2.2l-3.1-2.7l2.2-4l-4.9-1.8l-1.8-4l6.3-1.8l-3.1-3.6
			l4.9-1.3l-2.2-2.2l2.2-2.2l-2.7-4l4.5-1.3l-0.9-4.9l4.5-0.4c0,0-1.3-5.4,2.2-3.1c3.6,2.2,13-0.4,13-0.4l-0.4,4.9l5.8-1.3l1.3,4.9
			l1.8-2.2l3.1,4l3.6-2.2c-1.7-0.7-2.2-2.6-3.1-4l4-0.4l2.2,3.1c1.6-3.1,3.3-2,4.9-0.9l1.3-1.8l-2.7-10.3l3.6-2.2l2.7,7.6l3.6-4.5
			l2.2,3.6c1.6-3,3.4-5.9,6.7-8.1c1.4,3.5,1.6,5.8,1.3,7.6l3.1-1.3l3.6,4l-2.2-8.5c4.3-0.4,5.8,2,7.6,4c-0.8-2.5,0.6-5.1,3.1-7.6
			l1.3,6.7l1.8-4.5l6.7-0.9v5.8c2.5-4.5,5.6-6.5,9-7.6l1.3,9l5.8-5.4l4.5-0.4l-2.7,7.2l5.8-0.4l5.4-4.9l2.7,8.5
			c1.1-2,1.5-4.5,4.9-4.9v4c2.3-2.6,5.4-4,9.4-4l4.5,3.1l-5.4,4l6.3-1.3l2.2,3.1l4.9-4.5c1.3,1.6-0.2,3.9-2.2,6.3l9.4-1.3l3.6,3.1
			l-5.4,1.3l3.6,2.2h2.7l4.5-2.2l-6.3,7.2c2.8,1.7,4.1,3.7,2.7,6.3l-7.2-0.9l-0.9,0.9l3.6,3.6l-4.9,3.1l2.2,2.7l-3.1,5.8l4.9-2.7
			l1.3,4.5c1.4-2.3,2.4-5.1,5.4-5.8l2.7-0.9l0.4,2.7l7.2,0.4l-2.7,5.4c3.5-3,5.8-1.4,8.5-1.3l-4.5,2.7l3.1,2.7l-3.6,0.9
			c1.4,2.6,0.2,4.5-1.8,6.3h4l1.8-3.1l3.6,1.3l1.3,3.1l5.8-1.3l-0.9,3.1l7.2,2.2l-2.7,2.2l3.1,4.5l-4,3.1l-2.2-3.1l-1.8,4.9
			l-3.1-3.6l-0.9,4.5l4.9,2.2l4.5-1.3l1.8,4.5l1.8,6.3l-6.3-2.7l-0.9,5.8l-2.7-1.8l-2.7,2.2l3.6,2.7l-1.8,2.7l-4-0.4l2.7,3.1
			l-2.2,0.9l6.3,4.5l0.4,4.5l-2.7,0.4l-3.1-2.7l3.6,4.9l-1.3,3.1l-3.1-1.8l0.9,5.8c-3.6,1.6-4.7-1.6-6.7-3.1l1.8,6.3
			c-1.9,2-4.5,0.9-7.2-0.4c0.1,3.3-1.2,5.5-4.5,6.3l-1.8-3.6l-1.3,4.5l-3.6-0.9l3.1,5.4l-6.7,0.4l2.7,6.3l-5.4,0.4l-3.6,4.5l-4-4.9
			l-2.2,6.3l-5.4-2.7l-4.5,2.7l-6.7-3.1l-4,4.5l-1.8-3.6l-4.5,3.6l-3.1-4l-1.3,4l-2.2-6.3l-4.5,3.6c-1.6-3-0.8-6,1.8-9l-6.3,0.4
			v-4.5l-11.2,4.5l-4.9-4.5l-4.9,3.6l-1.8-5.4l-3.1,1.3l-2.7-3.6L108.8,877.3z"/>
	</g>
</g>
</svg>
