<?xml version="1.0" encoding="iso-8859-1"?>
<!-- Generator: Adobe Illustrator 19.0.0, SVG Export Plug-In . SVG Version: 6.00 Build 0)  -->
<svg xmlns="http://www.w3.org/2000/svg" xmlns:xlink="http://www.w3.org/1999/xlink" version="1.1" id="Layer_1" x="0px" y="0px" viewBox="0 0 512 512" style="enable-background:new 0 0 512 512;" xml:space="preserve" width="512" height="512">
<g>
	<path style="fill:#42f598;" id="leafColor" d="M451,151c0-53.101-45.601-97.901-100.201-90.401C333.701,24,297.1,0,256,0s-77.701,24-94.799,60.599   C106.3,53.099,61,97.899,61,151c0,18.9,6,36.899,16.8,51.899C66.7,219.099,61,237.4,61,256c0,55.499,47.999,100.499,110.4,104.7   c21.601,21,54.901,30.3,84.6,30.3s62.999-9.3,84.6-30.3c62.401-4.2,110.4-49.2,110.4-104.7c0-18.6-5.7-36.901-16.8-53.101   C445,187.899,451,169.9,451,151z"/>
	<path style="fill:#42f598;" id="leafColor" d="M434.2,202.899C445.3,219.099,451,237.4,451,256c0,55.499-47.999,100.499-110.4,104.7   C318.999,381.7,285.7,391,256,391V0c41.1,0,77.701,24,94.799,60.599C405.399,53.099,451,97.899,451,151   C451,169.9,445,187.899,434.2,202.899z"/>
	
		<rect x="156.917" y="226" transform="matrix(0.5547 0.8321 -0.8321 0.5547 294.4824 -68.2454)" style="fill:#714C2F;" width="108.167" height="29.999"/>
	
		<rect x="286" y="186.917" transform="matrix(0.8321 0.5547 -0.5547 0.8321 184.2356 -126.4889)" style="fill:#523522;" width="29.999" height="108.167"/>
	<polygon style="fill:#895D3C;" points="337.301,512 174.699,512 226,460.699 226,181 286,181 286,460.699  "/>
	<polygon style="fill:#714C2F;" points="337.301,512 256,512 256,181 286,181 286,460.699  "/>
</g>















</svg>
