<?xml version="1.0" standalone="no"?>
<!DOCTYPE svg PUBLIC "-//W3C//DTD SVG 20010904//EN"
 "http://www.w3.org/TR/2001/REC-SVG-20010904/DTD/svg10.dtd">
<svg version="1.0" xmlns="http://www.w3.org/2000/svg"
 width="919.000000pt" height="1516.000000pt" viewBox="0 0 919.000000 1516.000000"
 preserveAspectRatio="xMidYMid meet">
<metadata>
Created by potrace 1.16, written by Peter Selinger 2001-2019
</metadata>
<g transform="translate(0.000000,1516.000000) scale(0.100000,-0.100000)"
fill="#000000" stroke="none">
<path d="M3609 14522 c-29 -9 -99 -109 -99 -141 0 -10 -6 -24 -14 -30 -8 -7
-18 -26 -21 -42 -4 -16 -11 -27 -15 -24 -11 7 -30 -27 -30 -54 0 -12 -3 -21
-8 -21 -4 0 -15 -22 -25 -50 -17 -48 -15 -100 5 -100 5 0 6 -4 3 -10 -3 -5 -2
-18 4 -27 9 -17 10 -17 16 -1 4 10 8 29 9 43 1 30 25 33 49 5 9 -11 12 -20 6
-20 -5 0 -2 -11 8 -24 10 -13 21 -22 24 -20 14 8 20 77 9 88 -8 8 -11 7 -8 -3
2 -7 -3 -16 -9 -18 -9 -3 -13 9 -13 40 0 27 -5 47 -12 50 -8 3 -6 6 5 6 9 1
17 -3 17 -7 0 -5 10 -8 23 -6 12 1 26 3 30 3 5 1 5 6 2 11 -3 6 1 13 10 17 10
3 21 0 26 -8 7 -11 9 -9 9 7 0 11 9 29 20 39 12 10 18 25 16 32 -3 7 0 12 6
10 11 -2 28 26 57 93 l11 25 -5 -27 c-6 -33 9 -37 25 -7 13 24 5 73 -16 89 -7
7 -11 16 -8 21 3 5 2 9 -3 9 -4 0 -14 14 -21 30 -14 30 -37 36 -83 22z"/>
<path d="M5330 14466 l-13 -25 -18 22 -19 22 6 -31 c4 -18 1 -34 -5 -38 -6 -4
-11 0 -11 8 0 9 -4 16 -10 16 -5 0 -10 -6 -10 -12 1 -22 25 -107 33 -114 4 -4
7 -14 7 -22 0 -8 11 -29 24 -47 21 -27 24 -44 26 -116 3 -146 2 -156 -20 -162
-21 -5 -29 -47 -9 -47 6 0 9 -7 6 -15 -4 -8 -2 -17 3 -20 5 -3 11 3 13 12 4
14 5 12 6 -5 1 -18 -4 -22 -21 -20 -13 2 -28 7 -34 11 -17 10 -30 -11 -49 -83
-9 -36 -21 -74 -26 -85 -5 -11 -13 -38 -18 -60 -16 -67 -48 -171 -61 -195 -11
-20 -13 -21 -28 -6 -13 13 -14 19 -2 40 7 14 16 23 20 21 10 -6 5 48 -5 66
-10 15 -10 20 -13 82 -2 42 -9 45 -38 19 -17 -16 -22 -17 -33 -5 -10 11 -10
17 0 29 10 12 14 12 20 2 6 -9 9 -5 9 11 0 23 1 24 14 6 12 -17 14 -15 20 21
4 21 9 48 12 59 3 13 -1 10 -11 -8 -11 -18 -22 -26 -31 -23 -8 3 -13 2 -11 -2
3 -4 1 -16 -4 -27 -7 -20 -9 -10 -13 80 -1 23 31 33 36 11 6 -29 29 0 34 43 3
23 9 52 13 64 6 15 3 31 -8 50 -10 18 -12 30 -6 35 14 9 13 28 -2 44 -7 6 -13
20 -13 30 0 10 -11 24 -25 30 -15 7 -24 17 -21 25 10 25 -24 13 -60 -23 -28
-26 -43 -34 -60 -30 -22 6 -54 -15 -54 -35 0 -5 -6 -9 -14 -9 -8 0 -16 -7 -20
-15 -3 -8 -1 -15 4 -15 22 0 8 -31 -25 -55 -36 -28 -55 -26 -55 5 0 19 -22
107 -35 145 -4 11 -30 43 -57 71 -46 47 -53 51 -90 48 -23 -2 -49 -6 -59 -9
-13 -4 -31 14 -72 72 -88 125 -152 176 -211 166 -35 -5 -36 -7 -36 -50 0 -36
3 -44 15 -39 8 3 15 3 15 0 0 -3 -7 -12 -15 -20 -20 -20 -19 -73 1 -113 15
-29 23 -60 27 -103 1 -9 5 -14 9 -12 4 3 8 -4 8 -15 0 -12 5 -21 11 -21 7 0 9
-10 7 -24 -4 -17 -1 -23 9 -19 7 3 13 -2 13 -11 0 -10 7 -30 15 -46 13 -25 13
-29 -3 -35 -15 -6 -15 -8 4 -15 17 -7 23 -19 26 -54 2 -25 -1 -48 -7 -50 -5
-3 -4 -5 3 -5 6 -1 12 -5 12 -11 0 -16 -30 1 -31 19 0 12 -2 12 -8 -4 -7 -18
-8 -18 -27 4 -28 34 -63 49 -126 54 -32 3 -61 8 -67 11 -5 3 -11 2 -13 -4 -1
-5 -27 -12 -57 -15 l-53 -5 6 27 7 28 -23 -32 c-28 -40 -53 -52 -45 -23 3 11
1 20 -5 20 -5 0 -7 -17 -3 -43 11 -70 42 -172 52 -170 25 5 66 -117 46 -137
-6 -6 -23 22 -18 31 3 3 -4 14 -15 24 -11 10 -20 26 -20 37 0 10 -4 18 -10 18
-5 0 -10 9 -10 21 0 11 -4 17 -10 14 -7 -4 -8 3 -4 22 6 23 5 26 -7 17 -8 -6
-25 -11 -37 -12 -21 -1 -23 3 -18 24 5 18 2 24 -10 24 -10 0 -14 3 -11 7 4 3
-3 17 -15 30 -16 17 -23 36 -23 64 0 29 -3 38 -13 34 -10 -4 -12 0 -8 10 3 9
2 14 -2 11 -5 -3 -32 17 -62 44 -67 63 -130 97 -130 70 0 -5 8 -10 18 -10 10
0 24 -6 30 -12 7 -7 18 -13 25 -13 7 0 19 -15 27 -32 8 -18 21 -33 28 -33 20
0 8 -25 -12 -25 -28 0 -38 -29 -21 -61 14 -28 4 -61 -15 -49 -5 3 -11 1 -15
-4 -6 -11 -35 -3 -35 10 0 4 7 6 15 3 8 -4 15 -2 15 4 0 5 -7 12 -15 16 -9 3
-12 12 -8 23 4 13 3 15 -5 8 -6 -5 -12 -21 -14 -35 -2 -14 -9 -24 -16 -22 -18
3 -15 -15 4 -22 8 -3 13 -10 9 -16 -3 -5 -2 -18 4 -27 13 -26 2 -73 -17 -73
-17 0 -88 74 -97 100 -3 8 -56 40 -118 70 l-112 55 -120 0 c-66 0 -145 -6
-175 -13 -30 -7 -68 -13 -84 -15 -32 -4 -66 -39 -66 -68 0 -10 -9 -23 -20 -29
-31 -17 -27 -81 10 -145 32 -56 66 -84 108 -91 30 -4 45 -7 85 -19 26 -7 26
-8 10 -21 -22 -16 -65 -18 -80 -3 -16 16 -53 -7 -53 -32 0 -19 -4 -20 -37 -14
-46 8 -53 12 -53 31 0 19 -16 18 -24 -2 -9 -24 -7 -34 7 -34 8 0 22 -9 31 -19
17 -19 17 -20 -6 -23 -24 -3 -26 -11 -14 -64 6 -26 4 -32 -13 -37 -15 -4 -21
-13 -21 -35 0 -17 -4 -33 -8 -36 -5 -3 -7 -37 -5 -76 1 -39 -2 -82 -7 -95 -11
-28 -37 -33 -46 -10 -4 8 -12 15 -19 15 -7 0 -16 7 -19 16 -3 8 -14 14 -23 13
-22 -3 -88 25 -98 41 -4 6 -2 17 4 23 8 8 30 4 82 -13 64 -21 72 -21 86 -7 17
17 26 113 12 132 -3 6 -9 39 -12 75 -6 73 -33 150 -51 150 -7 0 -23 11 -36 25
-13 14 -32 25 -42 25 -11 0 -27 4 -37 10 -37 19 -80 -68 -44 -89 24 -14 7 -14
-18 -1 -16 9 -19 7 -19 -15 0 -15 5 -35 10 -45 17 -32 -4 -31 -56 3 -27 18
-72 40 -100 48 l-50 16 3 -66 c2 -36 8 -67 14 -69 5 -2 9 -12 9 -22 0 -26 45
-61 136 -106 44 -21 81 -40 83 -41 1 -1 0 -6 -3 -12 -4 -6 -19 -5 -41 5 -47
19 -48 19 -40 -23 4 -21 9 -56 12 -78 2 -22 15 -84 29 -138 13 -54 24 -106 24
-116 0 -10 7 -25 17 -32 9 -8 24 -32 34 -54 17 -37 119 -166 119 -150 0 4 14
-5 31 -19 17 -14 36 -26 43 -26 15 0 46 -32 46 -46 0 -5 -5 -2 -11 6 -9 12
-10 12 -5 -3 3 -10 6 -26 6 -35 0 -13 2 -14 9 -4 6 10 10 6 14 -15 3 -15 4
-29 3 -30 -1 -1 -19 9 -40 23 -21 14 -40 23 -43 20 -3 -3 -19 6 -36 20 -32 27
-49 25 -25 -3 15 -19 14 -53 -3 -53 -11 0 -22 41 -23 89 -1 25 -6 36 -16 36
-8 0 -20 15 -26 33 -6 18 -13 32 -15 30 -9 -5 -66 66 -74 91 -5 18 -9 20 -16
10 -6 -10 -12 -8 -28 10 -29 33 -164 100 -217 108 -24 3 -44 10 -44 14 0 14
-74 10 -95 -5 -21 -15 -26 -16 -51 -16 -12 0 -15 -6 -10 -25 10 -39 -3 -74
-30 -81 -16 -4 -24 -13 -24 -28 0 -61 78 -216 143 -284 18 -18 52 -45 77 -59
25 -15 57 -38 71 -52 39 -39 80 -71 90 -71 5 0 9 -4 9 -10 0 -5 9 -10 19 -10
11 0 22 -4 25 -9 3 -4 32 -18 65 -30 52 -19 59 -24 56 -46 -4 -38 -23 -57 -46
-44 -16 8 -19 6 -19 -11 0 -29 -25 -20 -26 9 -1 25 -70 101 -91 101 -7 0 -13
7 -13 16 0 10 -6 14 -14 11 -7 -3 -18 -1 -24 5 -6 6 -16 7 -27 1 -12 -7 -38
-4 -82 7 -35 10 -65 19 -66 21 -2 2 -7 18 -13 34 -6 17 -15 29 -20 28 -5 -1
-9 12 -10 28 -1 17 -6 35 -12 41 -8 8 -10 3 -8 -18 5 -43 -3 -58 -22 -42 -13
11 -15 10 -10 -9 4 -13 2 -23 -3 -23 -4 0 -6 -7 -3 -15 5 -12 -2 -15 -30 -15
-42 0 -60 23 -70 86 -6 40 -5 40 22 36 23 -3 28 0 29 19 1 12 8 26 15 32 9 6
8 7 -5 3 -23 -7 -47 38 -29 56 7 7 12 16 12 20 0 9 -36 5 -46 -5 -9 -8 -34 11
-34 26 0 16 -43 97 -52 97 -4 0 -8 7 -8 16 0 11 -5 14 -16 10 -12 -4 -15 -2
-11 9 6 15 -27 45 -50 45 -20 0 -15 -17 5 -23 19 -4 32 -44 32 -99 0 -25 -3
-28 -20 -23 -14 5 -20 2 -20 -10 0 -8 -6 -18 -13 -21 -7 -2 -13 -19 -14 -37
-2 -24 0 -27 6 -12 7 17 8 17 15 -8 8 -35 26 -35 26 1 0 21 2 24 10 12 8 -12
10 -8 11 15 1 17 3 22 6 13 6 -22 23 -24 23 -2 0 8 4 13 9 10 4 -3 6 -17 3
-31 -2 -14 -7 -23 -10 -21 -3 3 -13 -3 -22 -14 -9 -10 -29 -24 -43 -29 -15 -6
-27 -17 -27 -26 0 -18 -20 -21 -20 -2 -1 22 -48 49 -73 41 -12 -5 -28 -7 -35
-6 -6 2 -12 -2 -12 -8 0 -5 4 -10 9 -10 6 0 9 -10 9 -22 -3 -48 2 -88 11 -88
5 0 17 7 25 16 15 14 16 14 16 -1 0 -19 -25 -47 -34 -38 -3 4 -6 1 -6 -6 0
-21 -71 -3 -97 25 -12 13 -28 24 -36 24 -18 0 -66 53 -111 121 -36 56 -36 56
-19 89 l16 34 11 -25 c32 -78 50 -109 61 -109 7 0 18 -7 25 -15 16 -19 50 -20
50 -1 0 8 4 16 9 18 4 2 4 39 -1 82 -5 52 -5 83 2 90 5 5 10 20 10 32 0 12 11
36 25 52 17 21 23 37 19 57 -5 28 -5 28 21 11 23 -15 26 -15 32 -1 3 9 1 21
-6 28 -16 16 -14 27 5 27 11 0 14 6 9 20 -5 15 0 22 19 30 28 10 33 24 14 36
-6 4 -16 0 -23 -9 -16 -22 -20 -21 -22 4 -2 27 -21 49 -37 43 -8 -3 -16 1 -19
9 -4 10 2 13 21 11 15 -2 19 -1 10 2 -10 3 -18 10 -18 15 0 5 -11 9 -24 9 -13
0 -29 7 -36 15 -10 13 -17 12 -51 -5 -21 -11 -53 -20 -71 -20 -41 -1 -98 -50
-118 -100 -7 -19 -19 -42 -26 -50 -7 -8 -18 -30 -26 -49 l-13 -34 -20 36 c-10
20 -30 41 -43 48 -13 7 -28 21 -33 31 -15 28 -48 23 -55 -9 -10 -48 -23 -73
-38 -73 -7 0 -17 -7 -20 -16 -3 -8 -10 -13 -15 -9 -19 11 -29 -31 -24 -93 3
-36 1 -80 -7 -106 -14 -52 -7 -84 48 -195 40 -80 117 -166 168 -187 18 -8 35
-18 39 -23 3 -6 27 -7 54 -4 44 5 49 4 55 -18 5 -20 8 -21 16 -9 8 12 10 10
10 -11 0 -24 16 -49 32 -49 5 0 3 8 -3 19 -12 19 -7 51 9 51 4 0 13 -20 20
-44 11 -44 39 -67 53 -44 4 6 6 15 3 19 -2 4 11 6 29 4 17 -1 40 2 49 7 9 4
19 4 22 0 8 -14 -8 -29 -39 -37 -27 -6 -28 -8 -10 -15 11 -4 23 -3 26 2 3 5 9
2 13 -7 3 -9 11 -13 17 -10 7 5 7 11 1 17 -12 12 -5 38 9 38 5 0 9 -7 9 -16 0
-8 5 -12 11 -9 6 4 13 -2 16 -14 4 -17 13 -20 54 -19 27 0 49 5 49 11 0 5 9 2
21 -9 17 -16 22 -16 29 -4 5 8 7 23 4 33 -5 15 -2 18 14 13 16 -5 20 -2 20 17
0 19 -5 23 -19 20 -11 -3 -19 -12 -19 -19 0 -17 -17 -18 -23 -1 -2 6 -8 8 -13
4 -5 -4 -4 -11 1 -15 6 -4 17 -16 25 -27 15 -19 15 -19 -13 -2 -23 15 -31 16
-43 6 -10 -8 -18 -9 -25 -2 -7 7 -2 13 16 17 18 5 25 12 21 21 -3 8 -1 15 4
15 6 0 10 7 10 15 0 8 5 15 10 15 6 0 10 -6 10 -12 0 -10 3 -9 9 1 5 7 14 10
20 7 12 -8 14 15 5 50 -4 16 -11 20 -27 17 -22 -5 -22 -5 -2 10 16 13 18 18 7
28 -6 7 -12 20 -12 28 1 26 40 -31 40 -57 0 -12 6 -25 14 -28 8 -3 13 -11 10
-19 -3 -7 2 -19 10 -28 9 -9 16 -24 17 -34 0 -16 1 -16 8 2 7 17 8 17 15 -8 3
-15 13 -27 22 -27 13 0 15 -6 9 -27 -9 -37 -11 -38 -41 -25 -19 9 -24 17 -19
32 4 11 4 20 1 20 -7 0 -36 -30 -36 -38 0 -9 47 -29 90 -37 19 -4 42 -13 50
-20 26 -23 98 -29 125 -11 13 9 31 16 39 16 7 0 17 7 20 16 9 24 26 6 27 -29
1 -21 3 -25 6 -12 8 32 20 39 34 17 12 -18 14 -19 24 -5 14 19 51 10 39 -8 -5
-8 -3 -9 6 -4 8 5 18 1 27 -10 11 -17 13 -17 13 -2 0 9 10 21 21 28 15 8 19 8
15 0 -4 -6 0 -11 10 -11 13 0 10 -5 -10 -21 -15 -12 -25 -24 -22 -27 3 -3 15
3 26 13 24 22 47 8 36 -22 -6 -15 -9 -15 -16 -3 -5 8 -12 11 -16 7 -4 -3 -2
-13 5 -21 8 -10 9 -21 1 -41 -6 -15 -7 -31 -4 -37 5 -7 2 -8 -5 -3 -9 5 -11
19 -6 41 5 27 3 34 -10 34 -20 0 -41 20 -48 46 -3 14 -5 11 -6 -9 -1 -24 -3
-26 -20 -17 -21 10 -71 -5 -71 -21 0 -5 -21 -8 -46 -7 -53 1 -74 -13 -54 -36
16 -21 0 -27 -60 -24 -73 4 -160 -1 -160 -9 0 -5 18 -15 39 -24 31 -13 45 -28
66 -70 15 -30 43 -73 61 -96 19 -23 34 -44 34 -47 0 -5 43 -73 59 -92 5 -6 25
-34 45 -62 38 -52 109 -112 133 -112 7 0 13 -4 13 -9 0 -5 12 -12 26 -15 16
-4 23 -11 18 -16 -5 -5 -40 -1 -84 10 -162 43 -212 79 -268 193 -42 86 -96
152 -149 182 -17 10 -34 27 -36 37 -3 10 -13 18 -22 18 -9 0 -28 9 -42 20 -29
22 -58 27 -50 8 2 -7 10 -31 17 -53 23 -69 62 -168 81 -207 l19 -38 -27 -6
c-22 -6 -31 -2 -55 27 -16 19 -38 52 -49 74 -31 64 -53 99 -67 108 -7 4 -19
22 -27 40 -17 40 -32 57 -68 80 -25 16 -28 16 -34 1 -3 -9 0 -20 7 -24 11 -7
11 -13 2 -32 l-13 -23 5 23 c2 12 0 22 -4 22 -5 0 -10 10 -12 22 -2 12 -9 23
-17 26 -9 3 -11 -2 -7 -19 3 -13 3 -18 0 -11 -8 17 -24 15 -24 -3 0 -8 4 -15
10 -15 5 0 7 -6 4 -14 -5 -12 2 -26 47 -100 8 -13 8 -16 0 -12 -6 4 -11 3 -11
-3 0 -16 18 -22 26 -9 5 8 10 6 14 -8 4 -10 2 -25 -4 -33 -8 -11 -8 -15 2 -18
6 -3 12 -13 12 -24 0 -24 9 -24 26 -1 12 15 13 12 11 -24 -3 -61 -14 -53 -84
61 -7 11 -16 28 -19 38 -3 9 -9 17 -13 17 -4 0 -16 8 -27 19 -29 26 -93 46
-107 32 -7 -7 -8 -17 0 -33 6 -13 19 -49 29 -80 10 -32 21 -58 25 -58 4 0 11
-15 14 -32 4 -18 18 -49 31 -70 30 -47 30 -52 -1 -72 -24 -16 -38 -75 -15 -61
6 4 17 1 25 -5 13 -10 15 -8 16 16 1 17 3 22 6 11 2 -9 8 -15 11 -13 4 2 7
-16 8 -40 0 -24 -3 -44 -8 -44 -4 0 -8 9 -8 21 0 11 -5 17 -10 14 -6 -4 -8
-11 -5 -16 4 -5 1 -9 -4 -9 -6 0 -11 7 -11 15 0 8 -6 15 -13 15 -17 0 -54 42
-51 58 1 7 0 8 -3 2 -2 -5 -11 -10 -19 -10 -8 0 -14 -5 -14 -11 0 -6 7 -9 15
-5 15 5 16 3 19 -76 1 -16 -1 -28 -5 -28 -12 0 -20 -33 -10 -43 5 -5 7 -16 4
-23 -3 -9 0 -12 9 -9 9 4 14 -1 14 -14 0 -14 -4 -17 -12 -10 -8 6 -14 4 -18
-8 -6 -15 -9 -15 -16 -3 -5 9 -5 19 1 26 7 8 5 17 -6 27 -8 9 -15 20 -15 26 0
5 -5 13 -12 17 -6 4 -8 3 -4 -4 3 -5 0 -13 -6 -15 -9 -4 -9 -6 -2 -6 8 -1 9
-12 4 -36 -4 -20 -5 -45 -2 -57 3 -13 1 -19 -5 -15 -7 5 -8 -4 -3 -28 5 -24 4
-35 -4 -35 -6 0 -20 -27 -30 -61 -11 -33 -24 -62 -28 -65 -14 -9 -37 16 -31
33 4 11 2 14 -8 11 -8 -3 -13 -11 -11 -18 4 -16 -39 -3 -56 18 -6 9 -12 13
-12 9 0 -12 -73 29 -93 51 -12 13 -17 29 -13 44 3 13 3 17 0 11 -3 -7 -17 -13
-31 -13 -23 0 -25 -2 -19 -35 5 -23 3 -35 -4 -35 -6 0 -9 -4 -6 -9 3 -5 -1
-11 -8 -14 -8 -3 -17 -1 -20 6 -2 7 -5 4 -5 -6 -1 -11 -7 -17 -18 -15 -11 2
-19 -5 -21 -17 -8 -47 -10 -48 -58 -21 -26 14 -48 26 -50 26 -2 0 1 -12 7 -26
5 -15 7 -34 4 -44 -3 -9 1 -23 10 -30 8 -7 15 -19 15 -27 0 -7 7 -16 15 -19
14 -6 31 -41 27 -57 -1 -5 1 -6 6 -3 5 3 24 -10 42 -29 19 -19 30 -35 25 -35
-5 0 1 -10 13 -23 18 -19 21 -31 16 -58 -4 -19 -4 -31 0 -27 7 6 14 30 15 57
1 11 4 11 16 1 13 -11 13 -15 3 -21 -10 -7 -9 -9 4 -9 25 0 68 -40 61 -56 -4
-10 0 -12 11 -8 18 7 22 -11 5 -22 -8 -4 -7 -9 2 -15 19 -12 32 -11 24 1 -3 6
-2 10 4 10 5 0 13 -9 16 -20 3 -11 10 -20 15 -20 13 0 120 -105 120 -117 0 -6
10 -13 23 -17 30 -7 80 -70 97 -121 7 -22 19 -53 27 -69 18 -36 10 -43 -52
-49 -27 -3 -79 -8 -115 -12 -75 -7 -108 5 -128 48 -7 15 -21 31 -31 37 -22 11
-33 47 -17 54 6 3 4 5 -4 4 -21 -3 -68 30 -86 61 -8 14 -13 18 -9 7 3 -10 -16
5 -41 33 -35 38 -49 49 -55 39 -5 -7 -6 -21 -3 -30 3 -10 0 -27 -6 -39 -9 -15
-9 -24 -1 -32 6 -6 11 -24 11 -39 0 -16 12 -47 27 -71 29 -46 29 -48 20 -92
l-6 -30 13 29 13 29 18 -26 c10 -15 14 -35 11 -49 -3 -13 -3 -17 0 -10 14 31
64 -9 65 -53 0 -16 3 -24 6 -17 6 15 163 -138 163 -160 0 -7 7 -21 14 -31 10
-13 15 -15 19 -5 3 8 9 2 15 -14 7 -16 17 -26 24 -23 8 3 21 0 31 -7 15 -11 3
-13 -70 -11 -49 1 -118 3 -155 3 -58 0 -68 3 -69 18 0 12 -3 10 -10 -8 -9 -22
-12 -23 -23 -9 -10 15 -14 15 -31 3 -20 -15 -51 -19 -58 -6 -2 4 -2 2 -1 -5 2
-8 -11 -12 -39 -12 -64 1 -91 -13 -92 -47 0 -29 -1 -30 -47 -17 -22 6 -23 -10
-3 -31 8 -8 15 -31 15 -50 0 -20 4 -36 8 -36 10 0 116 -140 110 -145 -2 -3
-19 11 -37 30 -18 19 -36 35 -39 35 -4 0 -6 -28 -5 -62 1 -46 -3 -68 -15 -81
-15 -17 -15 -17 3 -11 16 7 17 3 12 -32 -16 -99 -19 -172 -9 -178 7 -4 9 -19
6 -36 -4 -19 1 -44 16 -75 l22 -45 49 2 c35 2 48 7 46 17 -1 8 4 16 11 18 7 3
12 -3 12 -14 0 -14 2 -15 9 -4 6 9 11 10 15 3 11 -17 121 -99 143 -106 20 -7
30 -41 38 -137 2 -20 6 -47 10 -59 6 -17 4 -21 -6 -15 -9 5 -8 1 2 -11 20 -23
42 -118 28 -122 -5 -2 -9 -8 -9 -14 0 -6 6 -6 15 2 12 10 16 8 24 -11 5 -13
18 -33 28 -44 11 -11 18 -25 16 -31 -2 -5 7 -10 19 -11 25 -2 51 -30 41 -46
-3 -5 -1 -12 4 -16 16 -10 3 -73 -13 -67 -9 3 -14 -2 -14 -14 0 -21 -34 -45
-50 -35 -6 4 -23 0 -40 -8 -26 -13 -29 -13 -33 2 -4 12 -5 13 -6 1 -1 -18 -47
-41 -67 -33 -9 3 -13 14 -10 27 3 12 0 9 -6 -6 -8 -19 -19 -28 -34 -28 -23 0
-64 42 -64 67 0 7 -12 31 -26 53 -14 21 -23 43 -20 49 4 5 2 12 -4 16 -13 8
-13 55 0 55 6 0 10 6 10 14 0 8 10 22 22 30 21 15 21 16 2 23 -10 4 -20 17
-21 28 -7 52 -23 89 -23 52 0 -9 -4 -17 -8 -17 -5 0 -16 -16 -25 -36 -18 -36
-39 -39 -30 -4 3 11 0 20 -6 20 -7 0 -10 26 -9 73 0 39 0 86 -1 102 -2 26 -3
27 -11 10 -4 -12 -15 -27 -24 -34 -10 -9 -14 -22 -11 -35 6 -21 6 -21 -9 -2
-9 11 -13 22 -8 25 4 3 8 17 10 31 1 14 9 30 17 36 8 6 15 24 15 39 0 24 3 27
25 23 14 -3 25 -1 25 3 0 5 -4 9 -10 9 -5 0 -26 11 -46 25 -43 29 -64 32 -64
8 0 -15 -2 -16 -10 -3 -18 27 -27 -7 -17 -63 11 -61 21 -83 37 -79 6 1 9 -2 5
-8 -7 -11 12 -90 22 -90 4 0 15 7 25 17 10 9 18 11 18 6 0 -6 -7 -16 -15 -23
-12 -10 -12 -16 -4 -26 6 -8 8 -21 5 -30 -8 -21 32 -106 46 -98 6 4 9 1 6 -7
-5 -15 27 -85 49 -107 7 -7 13 -22 13 -32 0 -10 5 -22 10 -25 6 -4 19 -25 30
-48 11 -23 36 -60 55 -82 30 -33 33 -40 20 -48 -28 -15 -198 34 -282 82 -54
31 -60 57 -42 191 13 108 13 108 -39 193 -18 29 -27 37 -42 32 -15 -5 -18 -3
-14 9 10 27 -14 17 -36 -14 -12 -17 -19 -37 -16 -45 3 -8 1 -17 -3 -19 -5 -3
-9 -28 -9 -55 -1 -27 -6 -59 -10 -72 -5 -13 -8 -57 -7 -97 5 -134 65 -208 231
-285 56 -26 109 -47 117 -47 9 0 18 -4 21 -9 19 -30 250 -17 269 15 10 18 36
18 43 0 3 -8 15 -17 27 -20 12 -3 33 -15 47 -27 14 -12 18 -19 9 -16 -9 3 -22
0 -28 -6 -9 -9 -14 -8 -22 3 -8 11 -9 7 -4 -15 5 -27 2 -32 -27 -44 -18 -8
-48 -25 -65 -39 -36 -27 -128 -41 -185 -30 -7 2 -12 -5 -12 -14 1 -10 -1 -18
-5 -18 -4 0 -5 -15 -3 -32 l5 -33 12 35 c13 38 16 38 118 27 27 -3 40 0 44 9
3 8 9 12 13 9 4 -3 21 2 38 10 18 9 43 13 61 10 24 -4 29 -2 25 10 -5 12 1 14
25 11 21 -2 31 1 31 10 0 34 56 26 70 -9 8 -20 9 -19 9 7 1 16 -2 27 -5 23 -4
-3 -13 1 -21 9 -9 8 -22 13 -29 10 -8 -3 -14 -3 -14 0 0 2 12 9 26 14 21 8 30
7 43 -7 9 -10 26 -23 38 -30 19 -11 23 -10 28 7 7 23 35 27 35 5 0 -8 6 -12
14 -9 9 3 16 -5 21 -23 4 -15 10 -22 12 -15 3 6 9 12 15 12 6 0 8 -6 5 -14 -6
-15 22 -46 40 -46 6 0 13 -7 17 -15 3 -8 1 -15 -3 -15 -12 0 -11 -89 1 -96 4
-3 8 4 8 15 0 25 19 28 22 4 0 -10 2 -22 3 -28 2 -5 3 -14 4 -19 2 -14 41 41
41 57 0 9 -10 24 -22 34 -18 14 -23 28 -22 58 2 61 15 100 26 83 7 -9 8 -5 5
14 l-4 28 23 -25 c13 -14 28 -25 34 -25 5 0 10 -8 10 -17 0 -15 2 -15 9 -4 5
8 16 11 26 7 13 -5 15 -13 9 -38 -6 -29 -5 -31 10 -19 14 12 16 11 16 -5 0
-17 1 -17 14 1 13 18 14 18 9 -9 -6 -29 -6 -29 18 -13 27 20 39 21 39 6 0 -5
-4 -7 -10 -4 -5 3 -10 0 -10 -9 0 -8 -6 -17 -12 -20 -9 -4 -8 -5 2 -4 29 2 70
-14 70 -28 0 -20 30 -30 41 -13 7 11 10 9 15 -8 4 -13 12 -23 19 -23 10 0 11
-7 3 -32 -6 -18 -12 -38 -14 -45 -4 -14 -102 -45 -116 -37 -6 4 -7 19 -4 35 5
24 2 30 -19 35 -14 3 -25 11 -25 18 0 6 -4 17 -9 25 -7 11 -14 11 -41 -3 -18
-9 -39 -16 -45 -16 -7 0 -19 -7 -26 -16 -22 -26 -60 -38 -130 -39 -36 -1 -71
-5 -77 -9 -15 -9 -4 -64 21 -99 15 -22 18 -37 12 -65 -4 -20 -9 -49 -12 -64
-3 -15 2 -41 11 -59 9 -18 16 -36 16 -41 0 -4 9 -17 20 -28 11 -11 20 -15 20
-9 0 7 10 9 25 5 15 -4 25 -2 25 4 0 6 4 9 8 6 4 -2 14 -1 22 5 11 6 12 9 2 9
-7 0 -10 5 -7 10 11 18 55 12 55 -7 1 -16 2 -16 16 2 8 11 20 19 25 17 5 -1 9
11 9 27 0 17 5 33 12 37 7 5 9 2 5 -8 -3 -9 1 -24 9 -35 14 -17 15 -16 10 14
-5 31 -4 32 19 21 13 -6 29 -23 34 -37 5 -14 10 -21 10 -14 1 7 7 10 14 7 14
-5 17 -42 4 -61 -4 -7 -3 -21 3 -32 8 -16 7 -20 -7 -19 -10 0 -26 -3 -35 -7
-14 -5 -18 -2 -18 14 0 12 -4 21 -10 21 -5 0 -7 -6 -4 -14 7 -18 -14 -59 -26
-51 -5 3 -13 -1 -17 -10 -11 -19 -88 -28 -101 -12 -6 7 -12 23 -15 37 -4 21
-4 20 -6 -7 -1 -30 -4 -33 -31 -33 -16 0 -44 9 -62 20 -18 10 -35 15 -38 10
-3 -5 -53 10 -110 34 -127 51 -207 71 -251 62 -68 -13 -67 -19 4 -92 51 -53
65 -73 61 -90 -5 -17 6 -28 65 -64 39 -23 74 -46 77 -51 3 -5 13 -9 22 -9 10
0 35 -9 57 -20 22 -11 45 -20 52 -20 8 0 16 -7 19 -15 4 -8 12 -15 19 -15 20
0 103 -53 110 -70 3 -8 13 -28 22 -45 9 -16 16 -44 14 -60 -2 -23 6 -40 29
-65 43 -48 54 -70 37 -70 -8 0 -22 9 -32 20 -10 11 -21 18 -23 15 -8 -7 49
-65 64 -65 10 0 24 -21 24 -35 0 -2 -18 -4 -39 -3 -22 0 -44 -3 -50 -6 -6 -4
-11 -2 -11 3 0 7 -7 7 -20 -1 -29 -18 -25 -32 17 -64 21 -15 39 -32 41 -36 2
-4 8 -8 14 -8 6 0 31 -15 57 -34 25 -18 71 -42 101 -54 54 -20 116 -50 153
-75 13 -9 21 -9 35 -1 13 9 24 8 50 -8 18 -11 33 -15 33 -9 1 6 2 16 3 23 0 6
7 13 15 16 8 3 11 0 7 -6 -3 -6 -2 -13 4 -17 6 -4 8 -11 4 -16 -7 -12 119 -10
138 2 9 6 5 9 -12 9 -23 1 -23 2 -8 14 10 7 15 16 11 19 -3 4 -12 2 -19 -4 -9
-7 -14 -4 -20 13 l-8 23 -7 -25 c-6 -23 -7 -22 -8 8 -1 18 3 31 8 28 5 -4 11
0 14 6 3 10 8 9 22 -2 17 -14 18 -13 12 2 -7 19 8 34 18 18 8 -13 25 -13 25
-1 0 5 -9 13 -20 16 -25 8 -26 25 -2 26 10 0 12 3 4 6 -6 2 -12 20 -12 39 0
19 -5 34 -10 34 -6 0 -9 -3 -9 -7 3 -20 -2 -24 -16 -13 -8 7 -15 22 -15 34 -1
19 -2 19 -11 3 -5 -9 -7 -22 -3 -28 4 -7 -1 -10 -12 -7 -16 3 -18 12 -17 65 1
48 -2 65 -14 71 -11 7 -12 11 -4 16 6 4 11 2 11 -4 0 -6 4 -9 9 -5 5 3 12 1
15 -3 6 -10 36 -9 54 2 7 4 12 2 12 -8 0 -8 7 -19 17 -24 10 -6 14 -16 9 -27
-5 -15 -4 -16 9 -5 9 7 14 19 11 26 -3 8 5 11 27 10 18 -2 40 -4 49 -5 10 0
19 -13 23 -32 7 -32 20 -29 27 6 3 16 10 19 33 16 17 -1 35 -6 40 -9 6 -4 17
-7 25 -7 23 0 21 -67 -2 -104 -19 -29 -48 -42 -48 -22 0 17 -31 21 -46 6 -8
-8 -22 -11 -31 -8 -11 4 -14 2 -11 -8 3 -8 14 -13 24 -11 33 6 78 2 84 -7 3
-5 19 -11 35 -13 l30 -5 -33 -14 c-36 -15 -37 -35 -1 -32 15 1 17 0 6 -3 -9
-3 -17 -10 -17 -16 0 -11 -33 -42 -65 -60 -19 -10 -19 -10 -5 7 14 17 13 18
-17 12 -22 -4 -37 -2 -48 9 -13 14 -15 13 -15 -11 0 -22 3 -25 20 -20 11 4 20
2 20 -4 0 -6 -6 -11 -12 -11 -7 -1 -3 -9 10 -19 29 -25 28 -28 -10 -23 l-33 4
0 -169 c0 -116 4 -175 13 -190 6 -12 12 -31 12 -42 0 -12 4 -21 9 -21 5 0 18
-20 29 -44 23 -49 50 -71 133 -110 89 -41 189 -29 189 23 0 28 26 44 83 52 75
10 106 25 125 58 9 17 26 33 37 37 54 19 64 13 179 -102 120 -120 123 -126 54
-138 -36 -7 -38 -9 -38 -45 0 -30 7 -46 29 -67 40 -39 93 -83 118 -97 11 -7
44 -29 74 -49 38 -27 55 -34 61 -25 5 8 8 5 8 -8 0 -33 132 -124 180 -125 9 0
21 -5 27 -11 5 -5 24 -11 42 -11 17 -1 31 -4 31 -8 0 -9 67 -17 205 -26 55 -3
102 -8 104 -10 8 -8 10 -84 2 -89 -5 -3 -7 -14 -4 -24 3 -10 0 -22 -6 -25 -6
-4 -11 -19 -11 -33 0 -18 -4 -24 -15 -19 -23 8 -36 -29 -35 -97 2 -89 -8 -187
-20 -202 -6 -7 -9 -21 -8 -31 1 -11 -2 -36 -6 -56 -5 -23 -4 -49 2 -68 8 -22
7 -44 -4 -85 -17 -66 -18 -111 -4 -120 8 -5 7 -11 -1 -21 -8 -10 -13 -67 -15
-162 -5 -219 -11 -385 -23 -602 -5 -107 -8 -265 -6 -350 3 -173 -18 -670 -30
-689 -11 -19 -21 -555 -15 -819 1 -40 -7 -137 -16 -215 -11 -93 -17 -202 -16
-317 2 -166 -10 -291 -30 -316 -4 -7 -8 -25 -7 -40 0 -16 -5 -58 -12 -94 -18
-99 -20 -191 -3 -217 17 -27 84 -32 104 -8 7 8 18 15 24 15 7 0 27 13 46 30
42 35 54 37 75 8 16 -22 16 -22 9 17 -4 22 -12 43 -18 48 -8 5 -8 9 0 15 6 4
16 23 23 43 18 57 99 80 136 39 22 -25 35 -26 35 -2 0 9 17 27 38 40 51 32 79
78 99 167 21 91 66 157 90 132 8 -8 18 -29 23 -48 13 -51 48 -152 60 -171 5
-10 10 -31 10 -47 0 -45 16 -45 29 0 10 32 16 40 30 36 16 -4 18 3 20 49 2 78
3 81 20 80 9 -1 17 8 19 22 2 12 10 22 18 22 22 0 28 28 13 56 -8 16 -9 28 -3
32 18 13 20 123 11 557 -3 159 -9 249 -17 266 -9 20 -9 32 -1 47 11 21 16 174
5 185 -3 3 -8 66 -10 139 -2 73 -7 192 -10 263 -12 216 -5 579 11 604 8 14 18
559 10 571 -5 8 -10 8 -20 0 -10 -9 -13 -5 -11 19 1 17 -3 33 -11 35 -12 5
-18 -13 -14 -37 1 -5 -2 -6 -7 -3 -10 6 -21 201 -28 534 -6 232 -6 232 19 280
13 26 27 64 31 85 4 20 11 37 15 37 10 0 32 54 54 130 32 109 48 155 61 175 8
11 19 47 26 78 l13 58 -41 42 c-39 39 -123 97 -164 113 -13 4 -20 -1 -27 -19
-5 -14 -14 -28 -20 -31 -6 -4 -8 -13 -5 -21 3 -7 1 -22 -4 -32 -9 -14 -11 -11
-17 22 -5 28 -18 49 -42 70 -19 17 -35 37 -37 45 -4 30 -27 60 -46 60 -16 0
-18 -5 -13 -35 5 -28 2 -35 -11 -35 -9 0 -19 6 -22 14 -3 8 -14 16 -25 19 -16
4 -19 14 -19 61 0 47 -3 56 -18 56 -10 0 -27 7 -38 15 -10 8 -29 15 -42 15
-14 0 -27 9 -34 25 -6 14 -18 25 -27 25 -12 0 -12 3 -3 12 10 10 17 10 32 0
22 -13 60 -1 60 18 0 6 7 10 15 10 8 0 15 7 15 15 0 8 4 15 9 15 5 0 9 16 8
35 -1 19 3 38 7 42 4 4 40 9 79 10 74 2 202 21 226 33 8 4 29 3 48 -2 25 -7
38 -5 55 7 12 8 32 15 45 15 12 0 25 4 28 10 3 6 17 10 31 10 33 0 63 32 60
64 -2 19 4 32 23 46 14 11 18 17 9 14 -12 -4 -18 -1 -18 10 0 9 4 16 9 16 5 0
16 2 24 5 10 4 14 -2 15 -25 0 -24 -5 -34 -24 -42 -42 -20 -26 -42 24 -32 27
6 54 44 31 44 -5 0 -9 7 -9 15 0 10 6 12 18 8 15 -6 15 -5 3 11 -13 15 -13 19
0 28 10 7 11 11 2 14 -7 3 -9 12 -6 20 3 8 1 14 -4 14 -5 0 -17 14 -27 30 -9
17 -22 28 -27 25 -5 -4 -10 4 -11 17 0 13 -2 36 -3 51 -1 16 4 31 11 34 7 2
10 11 8 18 -3 7 0 16 5 20 6 3 9 11 6 16 -4 5 -2 9 4 9 5 0 12 -4 16 -10 3 -5
12 -7 19 -4 18 7 32 -16 16 -26 -10 -6 -10 -8 1 -12 7 -2 9 -9 5 -17 -5 -8
-11 -9 -15 -3 -4 6 -11 4 -19 -4 -7 -8 -8 -14 -2 -14 5 0 10 -8 10 -17 0 -15
1 -15 13 1 13 18 15 18 35 -5 12 -12 22 -33 22 -45 0 -17 5 -22 20 -21 13 1
20 8 19 22 0 11 -3 14 -6 8 -8 -22 -21 -14 -25 17 -3 16 0 34 6 40 5 5 6 10 1
10 -4 0 0 9 9 19 15 16 16 23 5 42 -9 17 -9 24 0 27 6 2 11 10 11 18 0 9 4 13
10 9 5 -3 7 -12 4 -20 -3 -7 -1 -22 5 -32 9 -16 10 -15 11 7 0 20 2 22 10 10
8 -13 10 -13 10 2 0 17 40 47 40 31 0 -4 5 -1 10 7 8 12 10 9 10 -13 0 -16 4
-26 9 -23 10 7 9 -70 -2 -80 -4 -4 -7 -14 -7 -22 0 -13 3 -13 18 1 25 23 31
21 26 -8 -2 -14 0 -25 5 -25 6 0 8 -7 5 -15 -4 -8 -16 -15 -28 -15 -11 0 -28
-5 -36 -10 -12 -8 -10 -14 12 -37 15 -15 32 -41 37 -56 14 -38 14 -182 0 -205
-10 -16 -6 -24 25 -55 20 -20 36 -43 36 -51 0 -24 39 -39 110 -42 97 -4 198
21 272 68 25 16 63 32 82 35 20 3 39 10 42 14 3 5 15 9 27 10 26 0 71 53 64
73 -4 9 -30 17 -74 21 -99 9 -163 25 -184 46 -11 11 -19 13 -21 7 -5 -15 -48
31 -48 51 -1 13 -2 13 -11 -2 -9 -16 -15 -15 -69 15 -38 21 -60 40 -60 51 0 9
-4 18 -10 18 -5 1 -14 2 -18 3 -15 2 -72 55 -72 66 0 6 -8 10 -17 8 -10 -2
-19 4 -19 12 -1 8 -2 24 -3 35 -1 15 -3 17 -10 7 -6 -10 -11 -5 -20 19 -6 17
-11 43 -11 55 0 13 -4 24 -9 24 -13 0 -23 34 -15 54 5 14 9 14 22 4 12 -10 16
-10 19 0 6 17 23 15 23 -3 0 -21 20 -19 21 3 0 14 2 14 9 -3 5 -11 9 -27 9
-35 1 -13 0 -13 -9 0 -7 11 -10 2 -10 -32 0 -29 4 -48 11 -48 8 0 8 -4 0 -13
-8 -10 -7 -17 1 -25 21 -21 27 -13 17 20 -5 21 -5 36 1 42 6 6 10 6 10 2 0 -5
12 -1 26 9 24 16 26 16 39 -2 7 -10 11 -21 9 -25 -3 -5 -3 -8 1 -8 3 0 10 12
16 26 9 26 10 26 24 8 14 -18 14 -17 13 9 -2 16 -7 26 -14 23 -7 -3 -9 5 -6
20 6 34 20 30 31 -11 7 -27 6 -45 -5 -70 -8 -20 -10 -36 -4 -40 5 -3 7 -12 3
-20 -9 -25 7 -111 18 -94 8 12 10 12 19 -1 8 -13 10 -12 10 3 0 9 -7 17 -15
17 -8 0 -15 5 -15 10 0 6 12 10 26 10 23 0 25 -3 20 -27 -3 -16 -2 -35 4 -43
6 -10 10 -11 10 -2 0 6 9 12 19 12 10 0 22 7 25 16 5 13 9 14 21 4 8 -7 15
-20 15 -29 1 -14 2 -14 11 2 5 9 15 17 20 17 20 0 34 26 34 60 -1 19 0 38 2
43 6 11 103 -90 103 -108 0 -9 4 -14 9 -10 5 3 22 -6 37 -20 15 -14 39 -25 53
-25 20 0 23 -2 11 -10 -9 -6 -11 -10 -3 -10 7 0 10 -6 7 -14 -4 -10 2 -12 20
-9 14 3 26 11 26 17 0 13 57 10 75 -4 13 -11 142 -17 151 -7 4 4 14 1 22 -5
11 -10 16 -8 24 6 8 15 12 16 19 5 6 -10 9 -11 9 -1 0 6 7 12 15 12 8 0 15 7
15 15 0 17 18 19 39 6 18 -12 41 -3 41 16 0 8 -5 11 -12 7 -7 -4 -8 -3 -4 5 4
6 12 9 17 6 5 -4 9 -2 9 4 0 6 7 8 15 5 10 -4 12 -11 5 -23 -7 -14 -5 -17 10
-16 21 1 41 15 22 15 -20 0 -13 18 8 25 11 4 18 11 15 16 -4 5 -2 9 4 9 24 0
80 46 78 64 -1 14 6 22 27 27 55 15 61 -10 16 -61 -16 -18 -30 -38 -30 -44 0
-14 15 -38 24 -37 3 1 14 1 24 0 12 -1 9 -4 -8 -10 -19 -6 -15 -7 15 -3 22 3
45 10 50 14 15 12 45 -14 45 -38 0 -11 4 -23 8 -26 5 -3 7 13 5 35 -2 24 1 39
8 39 6 0 8 7 5 16 -3 8 1 26 10 39 15 23 22 44 23 75 1 11 4 11 19 -3 15 -17
16 -19 1 -30 -9 -7 -19 -23 -23 -37 l-7 -25 14 24 15 24 12 -22 c6 -12 9 -29
6 -36 -3 -8 -1 -17 3 -20 13 -8 23 27 11 39 -15 15 -12 41 9 65 14 16 21 18
24 9 3 -7 6 -4 6 7 1 25 71 52 71 28 0 -8 5 -11 11 -8 6 4 8 13 5 20 -4 10 3
12 27 9 28 -4 35 0 57 30 30 42 55 56 47 26 -3 -11 -1 -20 4 -20 5 0 9 3 10 8
4 57 10 87 20 96 9 8 10 8 5 -1 -10 -17 4 -40 14 -24 4 7 12 -6 20 -29 11 -32
18 -40 33 -38 11 2 23 10 25 18 5 13 3 13 -11 1 -10 -8 -17 -9 -17 -3 0 6 5
14 10 17 6 3 10 13 10 21 0 8 -5 12 -10 9 -6 -3 -10 1 -10 9 0 9 6 13 14 10 8
-3 17 -1 21 5 3 6 1 11 -4 11 -6 0 -11 7 -11 16 0 8 5 12 10 9 6 -3 10 0 10 9
0 8 6 17 13 19 9 4 9 8 -2 15 -8 6 -12 19 -9 30 4 14 0 23 -11 27 -15 6 -14 8
2 19 21 16 22 59 3 76 -8 6 -12 19 -9 28 5 13 3 14 -7 5 -23 -21 -39 -5 -27
28 11 27 37 41 37 19 0 -5 -5 -10 -12 -10 -6 0 -9 -3 -5 -6 9 -9 32 9 32 26 0
8 7 15 15 15 8 0 14 -7 12 -16 -1 -9 5 -19 13 -23 13 -5 13 -9 3 -25 -18 -29
-1 -38 22 -13 21 22 27 52 10 52 -5 0 -10 5 -10 11 0 6 9 8 20 4 14 -5 20 -2
20 9 0 27 19 17 33 -16 l14 -33 17 30 17 30 -6 -40 c-4 -21 -16 -47 -27 -57
-11 -9 -23 -33 -28 -52 l-8 -34 52 4 c28 3 56 6 63 6 7 1 10 4 8 8 -2 3 4 19
14 34 18 27 18 27 24 6 3 -12 2 -33 -3 -45 -6 -17 -5 -25 5 -28 7 -3 15 3 18
14 3 11 15 23 26 26 13 3 21 14 21 27 1 19 2 19 11 4 11 -19 39 -13 39 8 0 8
5 14 10 14 6 0 10 -7 10 -15 0 -19 14 -19 30 0 9 11 10 15 1 15 -8 0 -10 8 -6
21 5 15 4 19 -4 15 -6 -4 -11 -3 -11 2 0 18 13 21 25 5 11 -15 14 -13 29 15 9
17 30 39 46 47 33 17 80 64 80 80 0 15 80 87 120 109 19 10 45 27 58 39 12 11
22 17 22 13 0 -4 7 0 16 8 8 9 27 16 41 16 17 0 24 4 20 14 -6 14 48 96 63 96
4 0 10 12 13 28 3 15 9 35 12 44 5 13 0 19 -19 24 -15 3 -32 1 -40 -5 -19 -16
-27 -2 -20 37 12 62 -37 113 -53 55 l-7 -28 -6 30 c-3 17 -11 29 -18 27 -7 -1
-12 5 -12 13 0 8 6 12 14 9 9 -3 13 1 13 13 -1 12 5 18 18 18 11 1 19 6 18 12
-1 6 7 19 17 28 18 16 20 16 26 2 5 -14 9 -14 35 5 16 12 29 27 29 32 0 6 -5
4 -10 -4 -8 -13 -10 -12 -10 3 0 12 8 17 31 17 22 0 32 5 36 20 3 11 12 20 21
20 17 0 56 42 79 85 8 17 25 44 38 60 12 17 25 43 29 58 3 15 10 25 15 23 11
-7 21 28 21 76 0 29 3 36 15 32 10 -4 15 0 15 12 1 17 3 16 20 -5 15 -18 20
-19 20 -7 0 10 9 16 25 16 37 0 79 25 93 54 6 14 16 26 22 26 16 0 64 59 72
89 13 46 -11 80 -67 97 -62 18 -68 22 -87 60 -15 30 -15 31 9 28 31 -3 85 14
100 33 29 36 -5 133 -46 133 -30 0 -91 59 -91 89 0 14 -7 37 -16 49 -10 14
-11 22 -4 22 8 0 10 12 6 38 -8 49 6 94 43 139 17 21 31 43 31 50 0 7 5 13 10
13 6 0 10 -28 10 -62 0 -62 16 -108 27 -80 4 10 9 7 20 -8 l16 -22 23 28 c13
15 24 37 24 49 0 11 5 26 10 31 6 6 15 56 21 110 5 54 11 109 14 122 4 15 1
22 -9 22 -18 0 -26 22 -19 49 8 33 -5 74 -23 67 -9 -3 -12 -1 -9 4 3 6 1 10
-4 10 -12 0 3 33 27 58 6 7 9 24 6 36 -4 19 14 42 105 133 72 72 112 120 116
139 3 16 11 47 18 69 14 45 16 239 4 270 -7 17 -10 15 -26 -20 l-18 -40 -5 36
c-8 46 -56 149 -70 149 -5 0 -8 7 -5 15 4 8 0 27 -8 42 -8 15 -15 34 -15 41 0
6 -4 12 -10 12 -12 0 -11 6 -16 -135 -2 -60 -8 -122 -14 -137 -5 -16 -15 -42
-21 -58 -6 -16 -18 -30 -25 -30 -8 0 -14 -8 -14 -17 0 -28 -138 -153 -169
-153 -46 0 -70 -11 -73 -34 -2 -17 -10 -21 -39 -22 -20 -1 -48 -4 -63 -8 -23
-6 -34 -1 -66 31 -35 35 -132 92 -165 97 -9 1 -21 8 -27 14 -7 7 -18 12 -25
12 -17 0 -16 9 6 56 14 27 16 40 8 43 -46 15 -58 81 -22 122 18 20 18 22 3 16
-10 -4 -18 -2 -18 4 0 5 7 12 15 15 17 7 21 44 5 44 -5 0 -10 5 -10 10 0 6 6
10 14 10 15 0 26 -29 26 -70 0 -19 3 -21 12 -12 9 9 9 22 0 59 -9 31 -9 50 -3
56 7 7 14 2 20 -14 6 -15 10 -18 10 -8 1 19 -23 42 -33 32 -4 -4 -11 -1 -17 7
-7 12 -10 11 -15 -7 -4 -13 -10 -23 -15 -23 -5 0 -9 -7 -9 -15 0 -8 -9 -23
-20 -32 -14 -13 -16 -19 -7 -25 8 -5 7 -8 -5 -8 -9 0 -20 -5 -24 -12 -5 -7 -3
-8 7 -3 12 8 12 6 0 -9 -10 -12 -16 -14 -22 -5 -9 15 -58 -19 -59 -41 0 -16
-34 -50 -48 -50 -15 0 -82 -81 -97 -117 -10 -24 -12 -40 -5 -53 14 -26 13 -30
-8 -30 -29 0 -52 -33 -52 -74 l0 -37 -62 6 c-35 4 -80 7 -100 7 -33 0 -35 2
-26 18 6 10 23 25 38 33 14 9 44 32 65 52 37 33 40 34 47 15 4 -11 10 -20 12
-20 3 0 1 11 -4 25 -8 21 -5 33 18 68 15 23 30 44 35 45 4 2 7 10 7 18 0 7 11
21 25 30 17 11 24 25 25 47 3 150 -4 212 -21 201 -5 -3 -9 2 -9 10 0 9 4 16 9
16 5 0 13 9 16 20 3 11 18 23 33 26 15 4 39 13 53 20 23 11 75 20 142 23 20 1
57 36 57 54 0 33 -176 62 -252 42 l-28 -7 14 38 c11 34 19 40 67 57 69 23 129
83 146 146 15 56 16 111 4 144 -7 18 -5 30 6 46 14 21 14 22 -9 16 -17 -4 -30
1 -48 19 -28 30 -37 32 -62 9 -16 -15 -18 -15 -18 0 0 10 -5 14 -15 11 -8 -4
-15 -1 -15 5 0 7 6 14 14 17 17 7 31 58 20 75 -5 9 -11 7 -21 -6 -7 -11 -13
-13 -13 -7 0 7 -6 12 -14 12 -15 0 -11 35 7 58 6 8 6 12 -2 12 -6 0 -11 9 -11
20 0 13 -5 18 -15 14 -8 -4 -15 -11 -15 -17 0 -19 -32 -46 -48 -40 -10 4 -13
2 -8 -6 4 -6 2 -19 -5 -27 -11 -13 -10 -15 2 -14 30 5 50 0 44 -10 -5 -8 -12
-7 -22 2 -14 11 -15 9 -8 -21 4 -21 4 -31 -3 -27 -10 6 -34 -16 -31 -30 4 -22
-2 -54 -10 -54 -14 0 -20 39 -7 43 8 3 7 9 -3 20 -8 11 -11 28 -7 47 4 20 2
30 -7 30 -7 0 -21 19 -31 42 l-18 42 25 22 c17 15 24 29 20 42 -2 11 1 23 7
27 9 5 10 1 5 -14 -4 -12 -2 -21 4 -21 12 0 13 6 13 65 l-1 40 9 -35 c4 -19
13 -36 19 -38 5 -2 8 -9 5 -17 -3 -7 2 -27 11 -44 16 -32 32 -43 21 -16 -3 10
1 15 13 15 10 0 21 9 24 20 6 22 -12 27 -31 8 -9 -9 -12 -8 -12 4 0 9 6 19 13
21 10 4 10 6 0 6 -7 1 -13 9 -12 19 0 10 3 12 6 5 2 -7 9 -13 15 -13 6 0 8 6
5 13 -7 18 5 36 34 51 18 8 24 21 26 45 2 44 -14 88 -28 74 -12 -12 -1 -45 12
-37 5 3 9 -1 9 -9 0 -8 -9 -14 -22 -13 -36 2 -37 70 -3 115 22 30 25 32 25 13
0 -39 25 -13 27 28 1 23 -2 38 -8 35 -5 -4 -9 -13 -9 -21 0 -10 -9 -14 -30
-12 -23 2 -29 6 -24 18 4 8 7 24 7 35 0 11 3 36 8 56 10 39 -11 102 -26 79 -9
-15 -127 -91 -132 -86 -3 2 8 23 22 46 20 32 29 62 34 118 7 68 10 78 39 102
18 14 32 31 32 37 0 21 -73 81 -107 88 -19 3 -37 13 -40 21 -6 17 24 121 38
130 5 3 6 10 3 16 -4 6 1 17 10 24 20 14 38 79 30 110 -4 15 7 33 38 65 24 24
54 64 67 89 13 25 31 59 40 75 10 19 16 55 16 100 0 88 -17 118 -88 151 -59
27 -96 32 -78 11 17 -22 -29 -60 -62 -52 -22 6 -42 30 -37 44 1 2 -2 7 -7 10
-4 3 -21 26 -38 50 -16 23 -39 47 -52 52 -28 10 -30 29 -4 29 23 0 70 58 94
115 26 63 32 234 12 349 -8 52 -22 108 -30 123 -8 15 -15 34 -15 41 0 6 -6 12
-14 12 -38 0 -85 89 -101 195 -4 22 -14 56 -22 75 -16 34 -18 43 -21 66 -3 21
-53 23 -73 3 -11 -11 -19 -22 -19 -26 0 -5 -11 -35 -24 -68 -34 -85 -53 -158
-67 -253 -13 -94 -13 -94 -98 -40 -45 28 -46 28 -49 8 -2 -12 0 -26 5 -33 13
-18 10 -80 -4 -84 -9 -3 -13 8 -13 35 0 25 -11 61 -31 97 -34 63 -64 94 -92
95 -10 0 -20 8 -24 18 -3 9 -15 27 -26 39 -16 18 -19 33 -15 97 2 41 7 78 10
82 4 4 28 -1 53 -10 32 -13 45 -23 45 -37 0 -22 4 -23 31 -9 30 17 52 79 54
150 1 36 5 82 10 102 6 33 3 44 -27 90 -19 29 -42 72 -52 95 -11 23 -27 50
-38 60 -24 22 -84 43 -124 43 -36 0 -74 -35 -74 -69 0 -13 -15 -50 -34 -84
-19 -34 -44 -92 -56 -129 -21 -62 -24 -67 -50 -66 -18 1 -44 -11 -69 -31 -29
-23 -41 -28 -41 -18 0 9 -11 38 -25 65 -14 28 -25 54 -25 58 -1 14 -38 55 -47
52 -16 -5 -53 37 -53 62 -1 20 -6 13 -27 -30 -15 -30 -35 -61 -45 -68 -10 -7
-32 -41 -50 -75 -35 -71 -39 -118 -20 -302 12 -125 19 -152 47 -189 26 -34 38
-33 76 9 19 20 42 35 55 35 20 0 84 -52 84 -68 0 -11 -92 -57 -120 -60 -55 -5
-60 -7 -60 -18 0 -13 -64 -57 -98 -68 -17 -6 -24 -2 -34 18 -6 14 -16 26 -21
26 -5 0 -6 12 -3 28 6 23 15 94 17 127 2 37 -16 134 -28 153 -12 19 -17 21
-29 11 -12 -10 -20 -8 -43 9 l-28 21 -13 -40 c-7 -21 -19 -39 -26 -39 -14 0
-86 92 -98 124 -9 27 -19 12 -18 -29 1 -19 -3 -37 -8 -40 -6 -3 -10 -19 -10
-36 0 -16 -4 -29 -10 -29 -5 0 -10 8 -10 17 0 20 -48 73 -67 73 -7 0 -13 6
-13 14 0 8 -5 18 -10 21 -7 4 -9 -2 -5 -18 7 -26 -13 -100 -59 -222 -15 -38
-32 -97 -37 -129 -6 -33 -15 -67 -20 -75 -8 -13 -9 -12 -4 5 3 12 1 34 -5 48
-9 25 -11 26 -26 12 -18 -19 -74 -21 -74 -3 -1 6 -15 21 -33 33 -27 17 -32 25
-29 54 1 19 8 37 14 41 6 4 8 11 5 16 -7 12 37 106 58 123 8 7 15 23 15 36 0
12 4 25 9 28 4 3 11 18 14 34 7 33 57 142 89 193 24 38 42 41 66 10 19 -23 93
-23 110 1 7 10 17 16 22 13 14 -9 72 24 105 60 41 45 55 63 55 71 0 3 9 19 20
34 17 24 18 32 8 55 -9 19 -9 28 0 37 17 17 15 28 -3 22 -8 -4 -15 -2 -15 4 0
5 7 12 15 16 10 4 13 14 9 36 -4 16 -2 30 3 30 5 0 10 15 10 33 0 17 4 54 7
81 4 28 2 63 -5 83 -8 26 -8 38 0 46 16 16 13 54 -5 61 -13 5 -15 1 -12 -19 7
-35 -10 -31 -48 10 -17 19 -37 35 -43 35 -6 0 -17 -16 -25 -35 -8 -19 -19 -35
-25 -35 -5 0 -34 -33 -64 -72 -30 -40 -64 -83 -76 -95 -12 -12 -21 -26 -21
-31 0 -13 -71 -102 -81 -102 -5 0 -9 8 -10 18 0 9 -3 12 -5 5 -3 -7 0 -22 6
-33 10 -18 8 -24 -9 -36 -11 -8 -18 -21 -15 -29 4 -9 -1 -13 -13 -12 -15 1
-18 9 -17 56 0 32 8 69 17 86 11 20 13 31 5 36 -6 4 -14 28 -18 53 -6 42 -5
45 9 32 21 -19 74 -15 98 7 11 9 25 17 31 17 7 0 12 7 12 15 0 8 9 20 20 27
11 7 20 18 20 24 0 6 13 29 29 51 16 23 27 44 24 47 -4 3 0 24 7 47 11 32 11
45 2 60 -7 10 -12 29 -12 43 0 13 -6 41 -14 62 -7 22 -16 60 -20 85 -10 70
-92 134 -171 134 -38 0 -42 -3 -65 -47 -14 -27 -28 -48 -31 -48 -3 0 -6 26 -6
59 0 49 -6 69 -37 126 -43 76 -109 146 -166 175 -50 25 -54 25 -70 -4z m166
-397 c20 -7 41 -64 35 -96 -1 -7 6 -13 15 -13 14 0 15 -7 9 -47 -11 -66 -7
-104 12 -125 15 -17 18 -17 34 -2 23 20 24 18 39 -84 11 -78 7 -100 -15 -82
-8 7 -23 9 -34 5 -16 -5 -20 -3 -15 10 5 13 1 15 -20 12 -21 -2 -33 -15 -55
-58 -15 -29 -41 -78 -56 -108 -22 -42 -25 -55 -14 -61 7 -5 22 -4 33 2 14 7
11 1 -9 -18 -30 -29 -30 -29 -33 -6 -2 12 -8 22 -13 22 -5 0 -9 44 -9 98 0 96
22 221 54 311 18 49 21 111 6 111 -5 0 -10 18 -10 39 0 25 -5 41 -15 45 -8 3
-15 16 -15 29 0 40 9 42 76 16z m-380 -731 c-33 -157 -33 -158 -39 -313 -2
-61 -1 -144 3 -185 7 -83 4 -104 -16 -96 -11 4 -11 2 -2 -14 8 -12 15 -15 19
-8 4 6 9 2 14 -11 3 -11 3 -25 0 -31 -3 -5 -2 -10 4 -10 11 0 9 -19 -3 -38 -5
-9 -3 -13 5 -11 32 4 39 -4 54 -56 9 -30 21 -57 26 -61 6 -4 8 -41 3 -99 -4
-61 -3 -99 4 -111 6 -11 12 -14 12 -8 0 9 11 9 43 -1 34 -10 41 -16 39 -34 -3
-19 7 -26 32 -22 4 1 14 -3 21 -9 9 -8 13 -7 12 2 -2 54 4 68 26 68 13 0 29 6
35 12 10 10 15 10 22 -2 7 -11 10 -8 10 13 0 19 4 27 13 24 28 -9 5 -141 -29
-164 -13 -8 -21 -19 -18 -24 3 -5 -2 -9 -10 -9 -9 0 -16 -7 -16 -15 0 -8 -9
-32 -20 -53 -11 -20 -23 -54 -27 -75 l-6 -38 -46 7 c-25 4 -56 10 -67 15 -12
4 -25 5 -29 1 -4 -4 -12 -7 -18 -7 -7 0 -12 -6 -11 -12 3 -39 5 -44 13 -39 10
6 27 -52 18 -60 -2 -3 -26 7 -52 21 -26 14 -50 25 -53 25 -2 0 -2 -13 1 -29 4
-19 1 -33 -8 -41 -11 -9 -14 -30 -11 -81 3 -38 0 -69 -5 -69 -5 0 -9 6 -9 13
0 8 -4 7 -10 -3 -5 -8 -10 -10 -10 -4 0 5 4 14 9 20 14 14 18 57 6 61 -6 2
-17 -18 -24 -44 -8 -28 -16 -41 -18 -31 -2 9 1 27 8 40 9 19 9 21 -2 11 -23
-23 -32 -14 -14 13 17 26 17 27 -3 22 -12 -3 -23 -1 -26 6 -3 7 -9 5 -16 -6
-6 -10 -18 -18 -27 -18 -12 0 -14 -8 -10 -32 3 -22 -1 -39 -12 -52 -9 -11 -11
-16 -4 -13 18 11 22 -5 9 -43 -6 -19 -10 -44 -9 -55 1 -11 5 -66 9 -123 4 -57
10 -98 14 -92 11 17 20 -14 20 -66 0 -31 4 -43 11 -38 8 5 10 -6 5 -37 -3 -24
-2 -69 3 -99 10 -60 15 -52 -66 -120 -7 -6 -13 -29 -13 -50 0 -22 -4 -40 -8
-40 -12 0 -75 79 -88 110 -6 14 -17 25 -25 26 -26 2 -59 16 -59 26 0 5 -4 6
-10 3 -5 -3 -10 -2 -10 3 0 6 -10 12 -22 16 -13 3 -34 16 -48 29 -14 13 -30
22 -36 20 -15 -5 -34 19 -50 64 -9 27 -13 31 -14 16 0 -17 -6 -22 -27 -22 -16
0 -41 -3 -58 -6 -46 -9 -49 -9 -77 -2 -26 7 -27 7 -13 -20 8 -14 12 -30 9 -35
-3 -4 0 -17 6 -29 11 -19 10 -20 -11 -8 -13 6 -44 31 -69 55 -26 24 -52 44
-57 44 -6 0 -18 11 -26 23 -9 13 -30 30 -47 37 -23 10 -30 18 -27 32 3 10 0
18 -6 18 -15 1 -52 50 -37 50 5 0 10 8 10 18 0 14 -2 15 -10 2 -8 -12 -10 -9
-10 13 0 16 -4 26 -10 22 -5 -3 -10 1 -10 10 0 13 4 14 20 5 20 -11 30 3 10
15 -5 3 -6 13 -3 22 4 11 3 14 -5 9 -7 -4 -12 -2 -12 4 0 6 8 10 18 8 9 -2 16
-11 14 -21 -2 -12 2 -15 13 -11 9 4 14 13 11 21 -3 8 3 24 14 35 l20 22 1 -25
0 -24 9 23 c5 12 14 22 20 22 5 0 10 8 11 18 1 26 26 -59 36 -126 3 -18 9 -35
14 -38 5 -3 9 -18 9 -33 0 -16 7 -34 15 -41 8 -7 15 -21 15 -31 0 -29 33 -23
47 9 16 40 21 81 10 85 -6 2 -5 17 3 39 8 21 17 35 22 32 4 -3 8 2 8 10 0 9
-4 16 -10 16 -16 0 -12 44 6 66 15 18 15 18 11 -7 -2 -18 2 -30 16 -38 16 -11
18 -10 12 8 -4 14 0 21 15 26 11 4 18 11 15 16 -4 5 1 12 10 16 10 3 21 0 26
-8 7 -11 11 -10 22 5 11 15 16 16 22 6 5 -8 4 -15 -3 -18 -8 -2 -7 -12 4 -33
17 -34 34 -30 33 9 0 24 -1 25 -9 7 -8 -18 -9 -17 -9 8 -1 16 3 26 9 22 6 -3
10 -1 10 4 0 6 -8 11 -18 11 -10 0 -22 3 -26 8 -4 4 -11 7 -14 7 -4 0 -34 7
-68 14 -60 13 -60 13 -72 57 -15 54 -15 91 -2 99 6 4 8 11 5 16 -4 5 -2 9 4 9
6 0 8 -12 5 -30 -6 -27 -4 -30 18 -30 14 0 35 -12 49 -26 30 -33 96 -67 115
-60 8 3 20 -6 29 -24 14 -26 13 -30 -2 -38 -20 -12 -10 -44 12 -36 11 5 15 -1
15 -20 0 -16 -6 -26 -15 -26 -8 0 -15 5 -15 11 0 5 5 7 10 4 6 -3 10 -2 10 3
0 6 -7 12 -15 16 -11 4 -15 -2 -15 -20 0 -13 7 -27 15 -31 9 -3 15 -13 14 -22
-3 -31 1 -39 21 -44 11 -3 20 -14 20 -25 0 -10 16 -36 35 -56 24 -25 35 -48
36 -69 1 -24 3 -26 6 -9 5 23 18 29 28 12 8 -13 35 -1 35 16 0 17 27 19 33 2
3 -7 6 -3 6 10 1 13 -3 21 -8 18 -5 -3 -12 2 -15 11 -4 10 -1 20 8 25 8 5 12
16 9 29 -4 12 0 25 8 31 11 7 11 11 2 15 -7 2 -13 14 -13 24 0 11 5 17 10 14
6 -3 10 0 10 8 0 8 14 30 31 48 22 24 29 39 24 56 -3 15 0 30 10 40 11 11 13
19 6 26 -6 6 -8 36 -4 73 4 48 2 71 -12 100 -14 30 -15 38 -4 45 8 5 17 9 22
9 4 0 15 15 24 34 8 19 27 39 40 45 17 8 23 17 19 27 -4 10 6 27 24 46 17 16
30 37 30 47 0 9 13 37 28 62 19 29 31 64 35 101 6 61 -4 84 -38 90 -11 2 -26
10 -33 18 -11 13 -12 10 -7 -17 4 -21 2 -34 -7 -40 -22 -13 -58 -65 -52 -74 5
-9 -22 -69 -32 -69 -3 0 -3 9 1 19 3 10 -2 37 -10 59 -23 57 -17 86 20 92 29
6 29 6 7 14 -13 4 -22 15 -21 24 4 22 -10 62 -20 62 -5 0 -11 14 -15 31 -7 36
33 133 59 143 8 3 15 12 15 21 0 8 5 15 10 15 6 0 15 12 21 28 6 15 16 38 21
52 l11 25 7 -25 c7 -23 8 -23 9 -3 1 12 -3 24 -7 27 -12 7 -5 208 9 241 7 17
13 48 14 71 6 123 18 215 31 231 7 10 14 30 14 45 0 33 9 58 21 58 5 0 7 -10
5 -22z m-1191 -205 c9 -9 31 -16 48 -16 33 0 57 -12 57 -29 0 -6 -8 -4 -17 3
-15 13 -16 12 -8 -6 5 -11 9 -32 9 -46 1 -18 7 -26 21 -27 14 -1 16 1 7 7 -11
7 -11 16 1 51 9 28 16 37 20 27 8 -21 -2 -110 -13 -121 -13 -13 -13 -73 0 -81
6 -3 10 -4 10 -1 0 2 3 12 7 22 4 12 3 15 -5 10 -7 -4 -12 -3 -12 2 0 14 28
23 35 12 4 -6 4 -14 1 -19 -3 -5 3 -11 14 -14 25 -6 25 0 2 35 -14 22 -21 25
-30 16 -7 -7 -12 -8 -12 -2 0 16 24 64 32 64 4 0 5 8 2 18 -5 16 -5 16 6 0 6
-10 10 -24 9 -30 -3 -17 10 -67 24 -96 8 -17 8 -25 -1 -34 -7 -7 -12 -17 -12
-22 0 -6 4 -4 10 4 13 21 18 13 42 -88 15 -59 28 -92 37 -94 9 -2 5 -8 -11
-15 -25 -11 -26 -11 -22 15 3 22 2 24 -6 10 -11 -18 -32 -25 -28 -10 1 4 -4
18 -12 32 -8 14 -13 34 -12 45 1 11 -1 14 -4 8 -9 -21 -26 -15 -19 6 3 11 1
22 -4 25 -6 4 -8 13 -5 20 3 8 1 17 -5 21 -6 3 -11 -1 -11 -9 0 -9 -5 -16 -11
-16 -6 0 -17 -7 -25 -15 -9 -8 -19 -15 -24 -15 -8 0 1 48 15 83 5 12 2 22 -10
31 -13 9 -16 20 -11 39 7 29 -9 47 -18 20 -3 -10 -4 -4 -2 13 1 20 -2 30 -9
28 -6 -3 -15 10 -20 28 -6 18 -16 32 -22 31 -7 -2 -15 8 -19 21 -3 14 -12 27
-19 30 -8 3 -19 14 -25 25 -9 19 -8 21 14 21 13 0 32 -7 41 -17z m701 -419
c-3 -12 -1 -26 4 -29 6 -4 10 -12 9 -18 -1 -7 1 -19 4 -27 13 -33 47 -184 42
-188 -3 -3 -15 4 -28 16 -13 12 -29 22 -35 22 -7 0 -12 4 -12 9 0 5 -12 11
-27 13 -22 2 -28 9 -29 28 -1 14 -3 34 -5 45 -2 11 3 31 10 44 9 15 10 26 3
33 -7 7 -10 6 -9 -3 1 -8 -2 -15 -8 -17 -12 -4 -19 24 -11 45 5 12 9 13 21 3
10 -9 15 -9 15 -1 0 6 7 11 15 11 8 0 15 5 15 11 0 6 -9 8 -20 4 -15 -5 -18
-3 -14 9 13 34 69 25 60 -10z m-27 -341 c1 -55 9 -73 32 -73 17 0 17 3 7 20
-11 16 -10 22 6 33 13 9 17 20 13 32 -5 13 -3 16 8 11 8 -3 15 -1 15 5 0 6 5
7 12 3 8 -5 9 -1 5 12 -7 18 -7 18 8 0 18 -24 20 -49 3 -44 -20 7 -43 -21 -29
-35 8 -8 11 -7 11 6 0 22 20 22 21 0 1 -17 2 -17 6 0 7 25 22 21 28 -8 3 -14
7 -36 10 -49 3 -15 0 -28 -8 -33 -7 -4 -24 -24 -37 -43 l-24 -34 -7 24 c-7 24
-7 24 -8 -4 -1 -24 -3 -27 -16 -16 -12 10 -15 10 -15 0 0 -9 -8 -7 -26 5 -26
16 -26 16 -19 -7 l6 -23 -20 25 c-11 14 -21 21 -21 15 0 -5 -7 1 -14 14 -17
31 1 59 21 32 7 -9 13 -11 13 -5 0 15 -29 39 -37 31 -7 -8 -32 23 -33 41 0 6
9 12 20 12 24 0 43 34 35 60 -5 15 -3 18 9 14 21 -8 20 6 -1 22 -16 12 -16 15
-3 23 19 13 28 -8 29 -66z m-142 -406 c7 -2 28 -14 45 -28 18 -13 38 -24 43
-24 6 -1 19 -6 30 -12 17 -9 20 -19 17 -52 l-4 -40 -74 39 c-40 21 -87 41
-103 43 -55 9 -64 26 -33 65 17 22 20 23 79 9z m-701 -622 c18 -14 37 -25 42
-25 5 0 15 -13 22 -30 7 -16 16 -30 20 -30 15 0 38 -58 28 -68 -12 -12 -1 -35
12 -27 13 8 39 -35 33 -52 -5 -12 -14 -6 -39 21 -18 20 -38 36 -44 36 -6 0
-27 11 -48 24 -21 13 -52 27 -69 30 -37 9 -49 21 -51 59 -1 18 3 27 13 27 8 0
15 9 15 20 0 11 7 20 16 20 8 0 12 5 9 10 -11 17 7 11 41 -15z m1704 -5 c11
-11 26 -17 35 -14 10 4 15 0 15 -10 0 -20 33 -21 50 -1 11 14 15 14 38 -1 17
-11 27 -13 32 -5 4 8 15 4 33 -13 14 -13 34 -26 44 -28 13 -2 19 -14 21 -42 2
-25 0 -36 -7 -31 -6 3 -20 -14 -33 -39 -19 -41 -23 -44 -37 -31 -68 63 -140
103 -162 89 -5 -2 -11 8 -15 23 -4 15 -11 34 -17 40 -5 7 -7 24 -5 38 4 16 1
25 -8 25 -7 0 -16 5 -19 10 -11 18 14 11 35 -10z m-2883 -70 c-2 -36 -6 -49
-14 -45 -18 6 -16 -5 2 -19 12 -9 10 -16 -14 -45 -27 -33 -30 -34 -46 -18 -9
9 -24 17 -33 18 -9 0 -35 8 -57 18 l-40 18 28 18 c22 14 27 23 22 42 -5 23 7
29 58 25 9 -1 17 5 17 14 0 13 2 13 17 -1 15 -16 18 -16 28 -1 7 9 15 13 18 9
4 -3 7 -1 7 5 0 7 2 12 4 12 2 0 3 -23 3 -50z m-357 -82 c0 -5 4 -7 9 -4 10 7
21 -17 21 -45 0 -11 5 -17 10 -14 6 3 10 1 10 -6 0 -9 3 -10 10 -3 7 7 6 20
-5 40 -17 34 -6 43 27 20 12 -9 32 -16 45 -16 13 0 24 -8 28 -19 6 -20 32 -19
46 2 8 11 89 -10 89 -23 0 -6 6 -10 14 -10 8 0 17 -7 20 -16 3 -8 10 -12 16
-9 6 4 7 11 4 17 -4 7 -2 8 4 4 8 -5 12 -61 12 -182 0 -108 -4 -173 -9 -169
-6 3 -8 19 -6 35 2 19 -1 27 -8 24 -12 -4 -114 151 -110 167 2 5 -2 9 -7 9
-13 0 -106 92 -103 101 1 4 -4 10 -12 13 -8 3 -15 1 -15 -5 0 -17 -54 3 -74
28 -10 13 -21 22 -24 19 -7 -8 -31 26 -32 46 0 11 6 15 20 11 11 -3 20 -10 20
-15z m2928 -183 c7 -15 8 -27 2 -30 -18 -11 -11 -24 10 -20 17 3 19 1 10 -15
-12 -23 -13 -33 -1 -26 9 6 47 -139 43 -168 -1 -10 3 -25 9 -32 6 -7 8 -23 4
-36 -4 -16 -4 -19 3 -9 8 10 11 6 16 -17 4 -16 16 -47 27 -68 10 -21 19 -47
19 -57 0 -19 34 -75 55 -90 6 -4 2 -14 -12 -25 -16 -12 -21 -23 -17 -39 4 -13
2 -23 -3 -23 -15 0 -103 61 -103 71 0 5 -6 9 -14 9 -8 0 -21 7 -30 15 -8 9
-19 16 -23 17 -4 1 -7 11 -5 22 2 16 1 18 -7 7 -8 -12 -11 -12 -25 1 -8 9 -12
18 -9 22 4 3 1 6 -5 6 -7 0 -12 9 -12 21 0 12 -4 17 -11 13 -8 -4 -9 3 -4 26
4 19 3 30 -2 27 -5 -3 -7 10 -5 29 2 19 -1 40 -7 48 -13 16 3 71 18 61 5 -3
12 -1 16 5 4 6 -6 10 -22 11 -15 0 -22 3 -15 6 6 2 12 20 12 39 0 24 5 34 15
34 8 0 15 8 15 18 0 10 5 23 12 30 6 6 13 17 14 24 1 7 5 25 9 41 4 15 3 27
-2 27 -6 0 -15 11 -21 25 -11 23 -9 25 12 25 15 0 27 -9 34 -25z m-1422 -23
c57 -19 124 -74 152 -124 60 -110 82 -116 82 -23 l0 66 29 -22 c16 -12 32 -31
35 -43 4 -15 8 -18 14 -8 10 15 67 -24 122 -82 19 -21 45 -48 58 -61 12 -12
22 -27 22 -33 0 -13 48 -52 64 -52 6 0 28 17 49 36 36 33 37 37 22 54 -11 13
-14 28 -9 57 6 37 3 43 -30 76 -20 20 -32 38 -27 41 15 9 123 -101 143 -145
21 -47 21 -50 9 -46 -5 1 -9 -2 -9 -8 0 -5 4 -9 9 -8 11 3 26 -25 49 -90 19
-57 63 -158 85 -197 8 -14 20 -37 26 -52 6 -17 19 -28 30 -28 10 0 23 -9 29
-20 6 -11 14 -19 18 -19 4 1 18 1 31 0 18 -1 22 -5 16 -18 -5 -10 -11 -38 -15
-63 -6 -35 -8 -38 -9 -15 -2 38 -17 63 -30 50 -5 -6 -13 -77 -16 -160 -4 -82
-13 -168 -20 -190 -17 -50 -35 -127 -41 -180 -3 -22 -14 -64 -25 -95 -11 -30
-21 -63 -24 -72 -7 -32 -37 -87 -45 -85 -5 1 -15 -7 -24 -18 l-15 -20 -7 20
c-4 11 -34 56 -67 99 -74 99 -75 103 -39 111 16 3 35 17 42 30 16 31 27 31 57
3 13 -12 23 -16 23 -10 0 6 -5 14 -10 17 -6 4 -7 12 -3 18 12 19 14 47 3 47
-6 0 -10 -6 -10 -14 0 -26 -17 -26 -29 0 -8 18 -8 23 0 18 8 -5 8 -1 0 14 -14
27 -14 32 3 26 10 -4 12 2 8 22 -4 22 -2 26 11 21 10 -4 15 -1 12 6 -2 7 -6
33 -9 60 -4 38 -3 47 9 47 12 0 14 -7 10 -27 -6 -26 -5 -27 8 -10 11 14 16 15
20 5 3 -8 6 -5 7 7 0 11 7 29 15 39 20 26 20 60 0 52 -8 -3 -15 -1 -15 4 0 5
9 12 21 15 20 7 21 12 17 141 -3 125 -4 135 -25 149 -17 12 -23 26 -23 56 0
21 -4 39 -8 39 -5 0 -15 11 -22 25 -8 15 -22 25 -35 25 -12 0 -32 11 -45 25
-18 19 -26 22 -37 13 -10 -8 -17 -8 -25 0 -7 7 -15 12 -19 12 -10 0 -32 -68
-25 -78 3 -5 -2 -21 -9 -36 -8 -16 -13 -32 -10 -36 3 -5 1 -11 -5 -15 -5 -3
-10 -24 -10 -45 0 -40 -17 -90 -31 -90 -4 0 -9 -7 -12 -14 -4 -10 -1 -13 9 -9
7 3 14 0 14 -6 0 -6 -4 -11 -8 -11 -4 0 -13 -15 -20 -33 -14 -39 -15 -72 -1
-42 7 16 8 14 4 -10 -10 -61 -7 -142 10 -301 11 -101 -1 -105 -69 -21 l-22 28
0 -51 c0 -27 -6 -56 -12 -62 -7 -7 -12 -27 -12 -46 0 -22 -4 -31 -12 -26 -7 4
-8 3 -4 -4 12 -20 -4 -80 -22 -78 -11 1 -19 -12 -25 -44 -5 -25 -12 -47 -17
-50 -4 -3 -10 -18 -14 -34 -6 -24 -5 -26 7 -15 8 8 16 21 20 29 3 8 6 -2 6
-22 1 -20 6 -40 11 -43 6 -3 10 -19 10 -35 0 -16 7 -59 16 -97 21 -89 20 -86
26 -103 18 -51 26 -95 19 -108 -6 -10 -13 7 -21 52 -8 36 -18 66 -22 66 -5 0
-7 4 -4 9 10 15 -53 168 -80 195 -14 14 -23 29 -20 35 8 13 -15 62 -26 55 -5
-3 -15 0 -23 6 -15 13 -50 -6 -109 -59 -24 -22 -27 -23 -18 -5 6 11 18 26 26
34 9 7 16 18 16 25 0 7 7 18 15 25 8 7 15 20 15 29 0 9 9 34 20 55 10 22 17
42 15 47 -3 4 -1 11 5 14 6 4 9 25 6 51 -6 45 7 61 19 24 3 -11 11 -20 17 -20
7 0 7 4 0 13 -6 7 -9 22 -6 34 3 11 0 24 -7 29 -9 5 -11 2 -6 -9 4 -11 2 -14
-8 -11 -32 13 -27 43 12 83 21 21 45 51 54 67 8 16 21 38 27 49 7 11 21 42 32
68 12 30 24 46 31 41 7 -4 9 0 5 13 -4 11 -2 31 3 44 10 24 10 24 10 1 1 -20
3 -21 21 -10 17 10 18 14 5 16 -15 3 -19 19 -15 56 1 11 -3 15 -9 12 -7 -4
-11 1 -11 13 0 11 -7 27 -16 35 -17 17 -12 47 11 66 8 7 15 19 15 27 0 8 11
29 24 46 55 74 66 110 66 219 -1 99 -2 105 -30 142 -46 60 -110 97 -110 63 0
-8 -9 -22 -20 -32 -11 -10 -20 -25 -20 -33 0 -8 -13 -27 -29 -41 -15 -14 -32
-37 -36 -50 -5 -17 -10 -20 -18 -12 -16 16 -30 13 -23 -4 3 -9 -1 -18 -9 -21
-19 -8 -19 -24 0 -24 22 0 18 -18 -10 -46 -24 -23 -30 -37 -26 -58 3 -16 -52
-87 -61 -78 -5 5 -9 25 -10 45 -1 20 -5 37 -10 37 -12 0 -30 -51 -24 -67 3 -7
1 -13 -5 -13 -6 0 -13 8 -15 18 -3 9 -23 27 -45 40 -24 14 -39 30 -39 42 0 11
-5 20 -11 20 -5 0 -7 -5 -3 -11 5 -8 2 -9 -7 -3 -8 5 -31 20 -51 33 -32 19
-36 25 -24 37 8 7 16 19 19 26 3 9 9 7 21 -7 15 -19 15 -19 16 10 1 26 3 27
10 10 5 -11 9 -15 9 -9 1 6 11 9 25 7 18 -4 25 0 29 18 4 13 2 28 -3 33 -6 6
-10 21 -9 35 0 17 3 21 7 11 3 -9 10 9 17 40 8 41 8 60 -1 75 -6 11 -14 40
-17 65 -5 40 -27 98 -57 152 -6 10 -10 20 -10 23 0 10 56 3 106 -13z m-1707
-47 c6 3 24 -3 40 -14 16 -12 33 -21 39 -21 5 0 10 -30 11 -67 1 -38 4 -77 7
-88 7 -23 -104 94 -126 134 -9 15 -20 26 -25 24 -6 -1 -23 8 -39 20 -20 17
-27 29 -23 41 6 16 11 15 56 -9 27 -15 54 -24 60 -20z m738 -96 c-3 -11 3 -41
13 -65 18 -41 22 -44 58 -44 31 0 44 -7 75 -40 20 -22 45 -53 54 -67 10 -15
29 -38 43 -52 l24 -24 -21 -10 c-28 -12 -54 -2 -47 18 3 8 2 15 -4 15 -6 0
-13 -6 -15 -12 -3 -7 -6 -3 -6 10 -1 13 -7 22 -17 22 -18 0 -196 114 -189 121
4 4 8 49 14 137 1 6 6 12 12 12 7 0 9 -9 6 -21z m567 -11 c17 -11 -3 -23 -47
-27 -4 -1 -5 -20 -2 -43 l6 -43 -15 30 -16 30 5 -30 c14 -91 17 -103 30 -98 8
2 11 12 8 21 -5 14 -3 15 7 5 11 -10 11 -15 0 -28 -10 -12 -10 -19 -2 -27 7
-7 12 -22 12 -34 0 -13 7 -24 18 -27 10 -3 6 -5 -10 -6 -22 -1 -28 4 -28 19 0
11 -6 20 -14 20 -8 0 -16 5 -18 12 -3 9 -6 9 -12 -1 -5 -8 -1 -14 13 -18 30
-8 26 -23 -5 -23 -14 0 -40 12 -56 26 -30 24 -30 25 -9 31 19 5 20 7 5 18 -11
8 -19 35 -24 86 -6 62 -5 76 9 87 13 11 17 10 19 -2 5 -25 22 -19 19 6 -2 17
4 23 25 24 15 2 36 7 45 13 13 7 19 6 22 -2 2 -7 9 -15 15 -19z m-1304 -223
c9 -11 15 -13 20 -5 5 8 17 7 42 -3 32 -13 37 -13 52 1 8 9 18 14 21 11 5 -5
13 -43 14 -68 1 -8 4 -11 8 -8 9 9 53 -53 53 -75 0 -10 5 -18 11 -18 5 0 7 4
4 10 -3 5 10 3 30 -6 54 -22 129 -23 152 -1 11 9 26 17 33 17 8 0 27 12 42 27
28 26 28 26 28 4 0 -12 6 -21 13 -20 27 3 37 -2 37 -21 0 -11 4 -20 8 -20 5 0
28 -33 52 -72 45 -77 97 -145 163 -215 22 -23 52 -64 66 -90 31 -58 54 -64
110 -28 29 18 41 32 41 48 0 13 3 27 8 31 4 4 12 51 17 104 8 72 8 111 -1 152
-14 62 -12 70 14 47 10 -9 33 -20 51 -23 18 -4 35 -13 38 -20 3 -9 14 -12 27
-8 18 4 30 -4 57 -37 43 -54 126 -139 136 -139 13 -1 53 -37 53 -48 0 -5 7
-15 15 -22 28 -23 18 -47 -22 -55 -21 -3 -56 -13 -79 -20 -23 -8 -88 -17 -145
-21 -152 -10 -151 -9 -159 -25 -15 -28 2 -79 40 -117 l38 -38 -10 -115 c-8
-101 -7 -215 5 -274 2 -11 7 -45 11 -75 9 -62 33 -118 58 -134 25 -15 88 17
88 44 0 12 5 18 10 15 22 -13 41 -68 46 -131 2 -36 11 -81 19 -100 7 -18 23
-76 34 -127 16 -73 18 -102 10 -130 -11 -40 -32 -51 -26 -14 2 12 2 16 0 10
-6 -17 -5 -17 -50 9 -45 27 -85 71 -72 79 5 3 -5 5 -23 5 -18 0 -41 4 -52 9
-15 7 -17 5 -12 -12 5 -16 1 -22 -18 -27 -28 -7 -32 -43 -7 -62 19 -15 4 -36
-20 -29 -15 5 -17 3 -12 -12 6 -15 4 -14 -15 3 -20 18 -21 24 -11 53 9 25 9
35 0 41 -15 8 -41 57 -41 75 0 12 -80 96 -143 150 -20 17 -48 31 -64 33 -15 2
-32 8 -37 13 -6 5 -18 9 -28 9 -9 0 -22 8 -27 18 -6 9 -11 11 -11 5 0 -9 -12
-11 -42 -8 -43 6 -68 20 -68 37 0 6 6 6 14 -1 12 -10 13 1 9 68 l-5 80 38 -5
c22 -4 63 -12 93 -19 29 -8 75 -12 102 -10 35 3 50 1 56 -10 7 -12 15 -11 45
10 44 29 58 31 58 8 0 -16 -2 -16 -11 -3 -7 10 -9 11 -7 2 8 -32 23 -13 31 38
9 68 7 73 -43 105 -40 25 -40 26 -25 55 8 16 15 36 15 44 0 8 4 16 9 18 9 3
-10 114 -37 228 -15 62 -62 133 -129 198 -49 47 -69 60 -78 52 -10 -8 -19 2
-39 46 -14 31 -26 60 -26 63 0 4 -10 17 -22 28 -13 11 -43 41 -66 67 -24 25
-48 46 -53 46 -4 0 -6 8 -3 18 5 13 4 14 -4 3 -8 -11 -19 -8 -58 15 -27 16
-78 39 -114 52 -35 12 -69 27 -74 32 -6 6 -17 10 -25 10 -8 0 -28 12 -43 27
-27 26 -28 26 -43 7 -8 -10 -14 -32 -12 -49 2 -28 0 -30 -28 -26 -16 1 -45 11
-65 20 -31 14 -35 20 -34 53 1 21 -2 35 -6 33 -7 -4 -19 43 -26 103 -3 26 8
29 26 7z m1512 -272 c7 -6 24 -14 38 -18 28 -9 72 -54 64 -67 -3 -4 -1 -8 5
-8 5 0 12 5 14 10 3 6 4 5 3 -2 -4 -21 -36 -22 -36 -1 0 10 -4 14 -8 8 -10
-14 -56 -15 -64 -1 -6 8 -8 8 -8 -1 0 -19 -21 -16 -76 12 -46 23 -104 67 -104
79 0 10 159 -1 172 -11z m1342 -84 c-5 -8 -3 -9 6 -4 10 6 11 0 6 -26 -4 -19
-8 -44 -9 -56 -1 -13 -4 -23 -7 -23 -3 0 -6 -25 -6 -56 -1 -30 -4 -58 -8 -61
-12 -13 -54 27 -58 56 -3 17 -1 31 4 31 4 0 5 19 2 43 -5 33 -2 47 10 60 9 9
15 22 14 29 -2 8 4 12 15 10 15 -3 17 1 12 19 -7 22 -7 22 9 6 10 -9 14 -22
10 -28z m166 21 c0 -5 7 -10 15 -10 10 0 15 -10 15 -27 0 -16 3 -38 6 -50 5
-18 3 -21 -15 -16 -12 3 -21 1 -21 -6 0 -10 15 -14 45 -14 6 0 12 -8 12 -18 1
-11 -2 -19 -8 -19 -5 0 -9 -8 -8 -17 0 -12 2 -13 6 -5 4 10 8 10 18 2 8 -6 11
-19 8 -27 -4 -11 -2 -14 5 -9 12 7 16 -9 13 -46 -1 -9 7 -22 18 -28 15 -8 21
-21 21 -45 0 -26 4 -35 16 -35 14 0 15 -2 3 -16 -12 -15 -11 -16 9 -10 14 5
22 3 22 -4 0 -6 7 -18 15 -26 15 -15 13 -25 -15 -89 -9 -22 -20 -55 -24 -74
-8 -42 -32 -71 -59 -71 -14 0 -18 -5 -14 -20 3 -11 1 -23 -5 -26 -5 -3 -12 2
-14 12 -6 22 -81 57 -90 43 -3 -5 -10 -6 -16 -3 -7 5 -8 -6 -4 -32 4 -22 8
-55 9 -74 1 -19 6 -40 10 -47 4 -6 3 -14 -2 -17 -5 -4 -5 -23 2 -48 8 -31 7
-43 -1 -46 -7 -2 -12 -10 -12 -18 0 -21 -28 -17 -35 6 -4 11 -11 18 -16 15
-13 -9 -11 -35 3 -32 6 1 14 -6 16 -15 2 -13 -3 -18 -18 -18 -12 0 -18 -4 -15
-10 10 -16 -13 -12 -34 6 -11 10 -17 23 -14 31 4 9 9 10 17 4 9 -7 12 -3 11
16 0 38 -24 41 -31 4 -4 -17 -10 -28 -15 -25 -5 3 -9 1 -9 -5 0 -5 5 -13 10
-16 6 -3 10 -13 10 -22 0 -12 -3 -13 -14 -4 -9 7 -13 24 -11 42 3 20 0 29 -10
29 -22 0 -18 17 15 72 17 26 30 57 30 68 0 11 5 20 10 20 6 0 10 5 10 10 0 6
10 31 22 57 12 26 21 59 20 75 -1 15 1 28 5 28 16 0 6 184 -11 217 -9 17 -17
44 -18 60 -1 48 10 141 18 155 5 7 9 22 10 33 0 11 4 42 8 69 5 35 10 45 17
35 7 -11 9 -9 9 8 0 19 11 27 43 32 4 0 7 -3 7 -9z m606 -429 c-14 -49 -14
-51 9 -85 22 -33 25 -76 4 -76 -5 0 -9 -7 -9 -16 0 -14 3 -14 15 -4 8 7 15 22
15 34 1 21 1 21 21 -3 11 -13 17 -26 14 -30 -3 -3 -11 1 -16 9 -8 12 -9 10 -4
-6 3 -12 -1 -33 -9 -48 -13 -25 -15 -26 -24 -10 -8 15 -13 16 -26 5 -13 -11
-17 -11 -22 4 -4 10 -2 25 4 35 8 13 7 24 -2 42 -11 20 -11 28 0 43 18 24 18
36 0 61 -14 18 -14 17 -12 -9 3 -20 0 -27 -10 -23 -7 3 -16 0 -20 -6 -4 -7 -9
-6 -15 3 -12 19 -11 52 0 45 5 -4 12 0 14 6 3 7 6 4 7 -7 1 -18 1 -19 11 -2 5
9 7 23 4 30 -4 6 1 3 9 -7 19 -24 32 -15 18 11 -12 22 0 49 17 39 6 -4 11 0
11 10 0 10 3 15 6 12 3 -3 -1 -29 -10 -57z m-2366 -41 c12 -7 15 -35 17 -130
1 -71 -2 -120 -7 -120 -6 0 -10 -7 -10 -15 0 -9 6 -12 15 -9 9 4 15 0 15 -10
0 -9 -5 -16 -12 -16 -6 0 -3 -9 7 -20 10 -11 14 -20 9 -20 -20 1 -42 49 -53
120 -22 141 -27 165 -40 188 -6 12 -9 27 -6 32 8 13 45 13 65 0z m-1560 -20
c0 -5 7 -7 15 -4 11 5 15 -1 15 -22 l1 -29 13 24 c13 23 13 23 19 2 5 -21 -11
-102 -23 -111 -3 -3 -10 -14 -14 -25 -6 -16 -9 -17 -16 -5 -6 8 -10 29 -10 45
l0 30 -13 -25 c-7 -14 -10 -27 -7 -30 4 -3 3 -16 -1 -30 -6 -21 -7 -22 -9 -5
-1 11 -4 14 -7 8 -10 -25 -22 -13 -13 13 12 32 12 34 0 34 -5 0 -10 -5 -10
-12 0 -18 -63 -97 -84 -104 -11 -4 -22 -1 -27 7 -6 10 -9 10 -9 2 0 -6 4 -14
9 -17 10 -6 7 -27 -11 -88 -12 -40 -21 -40 -66 2 -12 11 -27 18 -34 14 -8 -5
-9 2 -4 22 18 74 18 122 2 145 -24 34 -20 64 9 77 15 7 25 8 25 2 0 -6 5 -10
11 -10 5 0 8 4 4 9 -12 20 18 22 38 3 l20 -21 -23 6 c-20 5 -22 4 -15 -13 4
-10 7 -38 6 -61 -1 -23 3 -44 8 -47 15 -10 24 13 11 29 -10 12 -10 15 0 15 7
0 10 7 6 15 -3 8 1 20 8 27 7 7 11 20 9 29 -3 9 3 24 13 34 17 17 19 16 40
-10 22 -27 22 -27 29 -6 4 13 18 24 35 28 16 3 29 8 28 12 -3 24 4 51 12 51 6
0 10 -4 10 -10z m1956 -56 c82 -7 94 -18 88 -82 -7 -71 -43 -192 -65 -215 -14
-16 -17 -29 -13 -58 5 -30 3 -39 -13 -47 -10 -6 -28 -26 -38 -46 -18 -34 -19
-34 -33 -15 -8 11 -20 43 -27 70 -11 42 -11 55 0 77 30 62 35 80 36 132 1 51
-14 140 -26 160 -7 11 5 41 15 35 4 -2 38 -7 76 -11z m3508 -150 c-3 -12 -1
-25 5 -28 6 -4 11 -14 11 -22 0 -8 13 -28 29 -45 31 -32 61 -87 61 -112 0 -17
-63 -42 -80 -32 -5 3 -10 -1 -10 -9 0 -8 4 -17 8 -20 12 -7 87 29 112 54 35
35 32 18 -10 -48 -22 -35 -40 -69 -40 -77 0 -8 -4 -17 -10 -20 -17 -10 -38
-68 -44 -120 -3 -27 -8 -71 -12 -97 -5 -33 -3 -48 5 -48 6 0 11 -12 11 -27 0
-19 -3 -24 -9 -15 -4 7 -12 12 -17 11 -29 -5 -67 23 -78 59 -4 12 -15 22 -24
22 -25 0 -43 34 -36 68 3 16 1 39 -5 51 -7 12 -8 21 -2 21 5 0 12 -6 14 -12 4
-8 6 -7 6 3 1 9 -6 22 -14 29 -12 10 -15 10 -15 -1 0 -12 -2 -12 -9 -1 -6 10
-10 8 -16 -10 l-7 -23 -8 25 c-9 28 -12 63 -3 43 7 -19 20 -16 43 9 35 38 18
80 -19 46 -11 -11 -13 -10 -9 2 3 8 17 16 31 18 28 3 36 17 15 25 -8 3 -6 6 5
6 9 1 17 8 17 16 0 8 7 15 15 15 19 0 19 -10 -1 -38 -9 -13 -13 -26 -10 -29 9
-10 36 18 36 38 0 10 6 22 13 26 8 4 19 29 27 56 9 34 16 45 24 37 8 -6 18 -3
29 10 9 11 17 22 17 25 0 11 -29 4 -33 -7 -3 -8 -6 -5 -6 5 -1 10 -6 15 -11
12 -6 -4 -10 5 -10 22 0 15 -1 48 -3 73 -3 25 -2 49 0 54 9 14 22 -18 17 -40z
m-2988 -114 c23 0 36 -31 51 -122 25 -151 26 -167 13 -183 -18 -22 -30 -18
-29 8 0 21 -29 163 -49 237 -17 61 -34 100 -43 100 -5 0 -9 7 -9 17 0 10 10 3
28 -20 15 -20 32 -36 38 -37z m2774 46 c0 -11 -11 -52 -27 -96 -3 -8 -7 -40
-10 -70 -9 -128 -18 -160 -43 -160 -10 0 -20 6 -23 13 -3 9 -31 11 -102 10
-64 -2 -103 1 -112 9 -9 7 -17 8 -21 2 -4 -6 -32 -21 -62 -33 -30 -13 -74 -37
-98 -53 -24 -16 -50 -27 -58 -24 -8 3 -19 -2 -25 -12 -8 -13 -21 -17 -45 -14
-26 3 -34 0 -34 -11 0 -9 -14 -25 -31 -37 -30 -22 -50 -23 -106 -5 -18 6 -23
3 -23 -9 0 -13 -11 -16 -59 -15 -54 1 -63 5 -92 35 -18 19 -41 34 -50 34 -10
0 -21 5 -24 10 -3 6 -16 10 -29 10 -25 0 -46 17 -46 39 0 23 -95 162 -140 205
-37 35 -40 40 -25 56 26 29 18 46 -10 20 -36 -34 -31 -5 5 30 34 33 55 37 85
17 11 -8 35 -19 54 -25 29 -10 37 -9 58 8 14 11 30 20 34 20 5 0 33 -16 63
-34 59 -39 99 -99 89 -137 -4 -15 -3 -20 5 -15 7 4 12 1 12 -7 0 -7 11 -24 25
-37 21 -20 34 -23 83 -21 96 4 105 6 110 19 3 10 -4 12 -30 7 -32 -6 -36 -4
-48 24 -15 37 -30 40 -30 6 0 -14 5 -25 10 -25 19 0 10 -16 -10 -17 -16 -1
-20 4 -20 27 0 15 -6 31 -12 33 -10 4 -9 8 2 16 8 6 22 8 30 5 19 -8 27 -8 68
1 27 6 32 5 32 -11 0 -16 2 -17 10 -4 8 13 10 13 10 -2 0 -9 6 -18 13 -21 9
-3 9 -7 -2 -20 -12 -15 -11 -17 8 -17 16 0 26 -10 37 -36 21 -51 48 -43 52 16
3 44 24 80 46 80 6 0 60 25 121 55 129 64 145 67 145 25 0 -29 15 -38 54 -31
4 1 14 -4 22 -10 10 -8 14 -8 14 -1 0 14 -31 31 -47 25 -6 -2 -17 5 -23 16 -8
16 -8 21 3 21 7 0 18 -5 25 -12 9 -9 12 -9 12 1 0 8 9 2 20 -12 11 -14 20 -30
20 -35 0 -5 11 -9 25 -9 21 0 23 3 18 31 -5 30 -5 30 10 11 25 -32 31 -9 7 25
-22 31 -44 33 -33 2 5 -13 3 -14 -6 -6 -10 10 -10 17 0 35 8 17 14 20 17 10 4
-11 6 -11 14 0 7 10 8 9 3 -6 -5 -16 -4 -17 6 -8 7 7 14 22 16 34 7 43 63 93
63 55z m810 -175 c0 -10 7 -24 15 -31 21 -17 19 -31 -10 -62 -14 -15 -25 -39
-25 -52 0 -15 -9 -31 -20 -38 -22 -14 -28 -43 -7 -35 6 2 11 10 10 16 -4 14
14 15 22 1 3 -5 2 -10 -2 -10 -5 0 -14 -10 -19 -22 -6 -13 -9 -17 -7 -10 1 6
-2 12 -7 12 -6 0 -11 -10 -11 -22 -1 -13 -2 -27 -4 -33 -1 -5 -3 -17 -3 -24
-2 -12 -5 -12 -14 -3 -6 6 -12 36 -12 67 -1 53 -9 69 -19 43 -4 -9 -6 -8 -6 3
-1 8 5 21 12 28 10 11 10 14 0 18 -7 3 -13 9 -13 14 0 6 5 7 11 4 15 -10 60
47 55 68 -2 10 6 30 20 46 13 15 21 31 17 35 -3 3 -1 6 5 6 7 0 12 -8 12 -19z
m-3854 -232 c19 -71 33 -179 22 -179 -4 0 -8 -5 -8 -11 0 -5 5 -7 12 -3 8 5 9
2 5 -9 -4 -10 0 -20 10 -25 10 -6 14 -17 10 -31 -3 -11 -2 -19 3 -16 7 4 30
-114 30 -157 0 -13 -9 -34 -20 -48 l-19 -25 -20 21 c-11 12 -17 24 -14 28 3 3
0 12 -6 20 -15 18 -19 113 -6 141 8 18 7 18 -7 7 -14 -11 -17 -10 -23 9 -4 12
-2 24 3 28 7 4 8 12 2 21 -10 16 -11 15 -28 -20 -7 -14 -10 -17 -8 -8 3 10 -1
21 -8 25 -7 5 -16 16 -19 26 -4 10 -11 16 -16 13 -5 -3 -14 7 -19 23 -8 24 -7
37 8 66 28 55 95 164 98 160 2 -2 10 -27 18 -56z m-1529 17 c3 -3 3 -9 -1 -13
-4 -4 -11 -2 -15 6 -15 23 -21 -30 -7 -58 7 -14 12 -46 11 -71 -1 -29 7 -64
22 -99 15 -32 22 -62 19 -76 -5 -20 -3 -22 16 -17 18 4 20 2 14 -21 -6 -24 -2
-30 20 -26 8 1 64 -53 64 -61 0 -4 -14 -7 -31 -8 -17 0 -33 -3 -36 -6 -5 -5
39 -67 72 -101 l20 -20 -23 -3 c-21 -3 -20 -6 17 -32 45 -33 61 -57 61 -95 0
-18 -7 -28 -26 -35 -36 -14 -39 -13 -53 16 -9 20 -9 30 0 40 7 8 9 17 6 20 -3
3 -11 -6 -19 -20 -13 -25 -14 -25 -43 -10 -17 9 -42 16 -56 16 -22 -1 -28 5
-33 30 -3 18 -1 37 5 44 9 11 8 18 -1 29 -7 9 -9 22 -5 32 5 10 7 24 6 31 -1
6 4 12 12 12 16 0 50 101 38 113 -5 5 -18 4 -29 -2 -17 -9 -21 -8 -25 7 -3 11
-5 9 -6 -8 -1 -20 -3 -22 -11 -10 -14 22 -12 40 4 40 8 0 17 7 20 16 7 19 -2
33 -12 19 -10 -14 -32 -17 -32 -5 0 5 8 14 18 20 15 10 15 11 -5 7 -18 -4 -25
3 -42 43 -11 26 -27 53 -36 60 -9 7 -13 21 -10 31 4 13 1 16 -13 12 -10 -2
-24 3 -31 11 -13 16 -6 21 22 17 4 0 7 5 7 12 0 7 -13 14 -30 15 -16 1 -30 -3
-30 -8 0 -6 -4 -8 -10 -5 -5 3 -10 2 -10 -3 0 -6 -7 -13 -16 -16 -9 -3 -12 -2
-8 5 3 6 -3 5 -15 -3 -29 -18 -26 -38 9 -83 16 -20 27 -42 24 -47 -3 -5 -1
-15 5 -21 6 -7 12 -32 13 -55 2 -23 6 -42 10 -42 16 0 19 -43 4 -65 -9 -14
-11 -25 -5 -27 5 -2 12 -18 14 -37 2 -18 7 -42 10 -52 4 -11 4 -38 0 -60 -6
-34 -10 -39 -28 -37 -20 3 -22 -2 -23 -51 -1 -32 -6 -57 -12 -59 -7 -2 -12 -8
-12 -13 0 -6 5 -7 11 -3 12 7 29 -12 29 -34 0 -8 -5 -10 -12 -6 -9 6 -9 3 1
-9 10 -13 18 -14 32 -6 22 11 22 9 9 -25 -7 -18 -17 -26 -34 -26 -20 0 -27 7
-35 38 -6 20 -11 43 -11 50 0 6 -4 12 -10 12 -16 0 -11 28 7 38 10 6 14 16 10
26 -4 10 -11 14 -17 11 -6 -4 -8 -10 -5 -15 3 -4 -3 -14 -12 -21 -14 -12 -15
-11 -8 10 4 13 3 21 -2 18 -4 -3 -13 6 -20 19 -6 13 -7 24 -2 24 5 0 9 8 9 18
0 10 -3 13 -8 6 -11 -16 -45 -26 -39 -12 2 7 9 12 14 11 5 -1 10 9 11 23 2 28
-6 31 -23 8 -11 -15 -14 -15 -33 7 -12 12 -22 17 -22 11 0 -18 -17 -14 -38 8
-10 11 -26 18 -34 15 -8 -3 -26 5 -41 19 -16 15 -29 21 -33 14 -4 -7 -9 -6
-15 3 -13 21 10 39 51 39 21 0 40 4 42 8 2 5 17 15 33 23 18 9 30 22 30 34 0
11 4 30 9 43 7 22 8 23 23 5 14 -17 14 -17 9 0 -3 10 -6 27 -6 38 0 11 -7 19
-17 19 -10 0 -23 11 -30 25 -9 21 -9 25 5 26 14 0 14 2 2 6 -8 4 -20 13 -27
22 -15 20 -17 2 -3 -33 6 -17 6 -26 0 -26 -6 0 -10 5 -10 10 0 7 -6 7 -19 1
-21 -12 -48 10 -36 29 12 19 26 10 20 -12 -6 -19 -5 -21 6 -10 10 9 11 17 2
30 -8 13 -8 24 0 37 5 10 12 28 13 39 2 12 9 41 15 66 6 25 13 60 16 78 3 17
7 32 8 32 15 0 35 -15 35 -26 0 -8 4 -14 9 -14 5 0 14 -12 20 -27 9 -25 10
-24 4 11 -4 28 -3 37 6 32 6 -4 9 -11 6 -15 -2 -5 15 -7 39 -5 31 2 46 -1 49
-11 7 -16 47 -9 47 9 0 6 9 17 21 24 16 10 24 11 35 1 12 -10 13 -9 8 4 -8 21
41 35 67 18 26 -16 31 -14 24 8 -5 16 -1 19 20 17 14 -2 29 -6 32 -10z m-1528
-10 c23 -27 146 -95 209 -115 75 -24 84 -29 76 -42 -4 -6 -11 -6 -20 2 -12 10
-14 0 -12 -71 l3 -83 -35 -10 c-33 -8 -37 -7 -67 29 -19 21 -33 49 -33 63 0
21 -2 23 -10 11 -9 -13 -11 -13 -20 0 -6 8 -13 27 -17 43 -3 15 -9 27 -14 27
-5 0 -9 8 -9 18 0 9 -9 28 -20 42 -11 14 -20 30 -20 36 0 6 -9 19 -20 29 -21
19 -26 35 -11 35 5 0 14 -6 20 -14z m656 -125 c6 -18 4 -22 -6 -15 -9 5 -8 -1
3 -18 10 -15 19 -40 20 -57 1 -17 5 -31 9 -31 4 0 5 -10 1 -22 -4 -15 -2 -19
7 -14 8 5 14 0 18 -13 3 -12 9 -21 13 -21 4 0 11 -10 15 -22 4 -13 9 -27 10
-33 2 -5 6 -20 9 -33 8 -34 15 -42 42 -42 26 0 31 -9 12 -28 -9 -9 -9 -12 0
-12 7 0 12 5 12 10 0 17 17 11 48 -15 31 -26 48 -33 36 -14 -9 15 38 0 48 -15
5 -7 -10 -14 -45 -20 -28 -5 -57 -17 -64 -25 -11 -14 -12 -14 -13 2 0 17 -1
17 -16 2 -10 -9 -20 -12 -23 -7 -3 5 -18 12 -33 15 -15 4 -33 14 -42 22 -16
17 -41 21 -31 5 3 -5 1 -10 -5 -10 -6 0 -15 11 -20 25 -11 28 -110 163 -110
150 0 -5 -12 3 -27 17 -16 14 -38 31 -50 37 -25 13 -57 66 -48 80 10 17 -31
53 -65 57 -51 6 -46 11 17 18 112 13 125 15 139 27 8 6 20 9 27 6 7 -3 21 1
32 9 23 17 38 18 30 2 -3 -7 2 -3 11 10 19 25 24 21 39 -27z m4013 -55 c17 -6
21 -12 16 -28 -4 -13 -1 -24 7 -29 21 -13 26 -11 33 16 7 27 25 35 22 9 0 -9
10 -23 23 -32 24 -16 24 -16 12 6 -7 14 -8 22 -1 22 5 0 10 -4 10 -8 0 -5 7
-17 15 -28 14 -18 15 -17 12 15 -2 36 9 47 33 31 12 -8 12 -11 -1 -27 -24 -27
-32 -66 -12 -59 9 4 13 1 11 -6 -7 -20 -43 -16 -42 4 2 21 -32 30 -47 12 -15
-18 -33 -18 -26 0 4 9 -2 13 -16 12 -11 -1 -22 -7 -25 -14 -2 -8 2 -10 15 -5
16 6 16 5 4 -10 -15 -19 -31 -14 -31 10 0 13 -2 14 -17 2 -15 -12 -16 -12 -10
5 5 13 1 25 -14 39 l-22 21 7 -28 c8 -31 -10 -33 -28 -3 -8 13 -8 20 3 26 8 5
11 16 8 25 -4 9 -1 26 6 37 10 16 14 17 22 6 6 -8 20 -17 33 -21z m535 20 c17
-14 23 -36 9 -36 -4 0 -13 5 -20 12 -9 9 -11 4 -9 -20 1 -18 7 -32 12 -32 6 0
5 -4 -2 -8 -9 -6 -8 -15 6 -36 13 -20 21 -24 26 -15 5 7 1 17 -10 26 -11 7
-13 13 -7 13 9 0 10 5 2 19 -15 29 -12 33 12 20 18 -10 20 -9 15 6 -8 19 9 55
25 55 9 0 9 -3 0 -12 -7 -7 -12 -24 -12 -38 0 -14 -6 -32 -12 -39 -11 -11 -10
-12 0 -6 11 6 12 -2 6 -40 -4 -28 -3 -46 2 -42 15 9 45 -19 38 -37 -3 -9 -10
-14 -14 -11 -4 3 -10 -2 -14 -10 -3 -9 0 -15 9 -15 8 0 15 -6 15 -14 0 -19
-23 -33 -28 -18 -2 7 -20 12 -39 12 -30 0 -34 2 -23 15 11 13 8 14 -19 9 -27
-6 -30 -4 -24 11 4 11 2 16 -3 12 -9 -5 -41 60 -32 67 1 2 16 10 32 18 l29 15
-38 7 c-21 4 -41 4 -44 -1 -8 -13 -51 -14 -51 -2 0 6 3 8 8 6 13 -8 52 12 52
28 0 19 14 19 30 0 11 -14 15 -13 27 5 8 12 13 30 10 41 -3 10 -1 22 4 25 5 3
7 10 4 15 -9 13 7 11 28 -5z m-2380 -319 c-3 -4 -11 -3 -18 3 -9 8 -15 8 -20
0 -3 -6 -11 -7 -17 -4 -6 4 -8 2 -4 -4 3 -6 2 -13 -4 -17 -5 -3 -10 -16 -10
-28 0 -12 -9 -33 -20 -47 -11 -14 -20 -29 -20 -35 0 -5 -10 -53 -22 -105 l-23
-95 -6 50 c-3 28 -2 58 3 68 6 11 5 17 -3 17 -8 0 -10 13 -6 39 3 27 1 41 -8
45 -7 2 -14 18 -17 34 -3 24 2 37 29 62 25 25 33 29 33 16 0 -10 5 -14 11 -11
6 4 8 13 5 20 -3 8 3 17 13 20 10 3 26 14 36 25 18 20 19 20 46 -12 15 -18 25
-37 22 -41z m1139 -180 c6 3 8 -6 4 -23 -3 -16 -2 -36 4 -44 8 -12 10 -10 10
10 l0 25 20 -30 c11 -16 20 -36 20 -44 0 -8 7 -22 16 -32 19 -21 11 -54 -10
-46 -7 3 -19 0 -25 -6 -8 -8 -11 -7 -12 4 -1 7 -4 -1 -8 -18 -5 -26 -9 -31
-21 -23 -13 8 -13 13 -2 31 9 14 10 25 4 31 -7 7 -12 3 -17 -11 -8 -27 -25
-27 -25 0 0 11 -4 18 -10 14 -10 -6 -42 49 -33 58 3 4 -4 15 -16 24 -21 17
-21 20 -7 47 20 39 33 45 69 35 16 -5 34 -6 39 -2z m-622 -52 c0 -8 5 -15 11
-15 15 0 41 -69 34 -89 -6 -14 -8 -14 -21 3 -8 11 -14 34 -14 50 l-1 31 -14
-25 c-18 -32 -19 -50 0 -50 19 0 34 -28 27 -54 -5 -19 -4 -19 11 -7 15 12 17
10 19 -20 0 -19 0 -45 -1 -59 -1 -15 2 -20 6 -13 6 8 12 4 20 -13 14 -30 4
-31 -31 -3 -15 11 -33 22 -40 23 -30 4 -45 27 -35 52 6 17 5 32 -2 46 -8 14
-8 23 0 31 7 7 7 16 0 29 -6 11 -8 22 -5 25 3 3 1 14 -4 24 -6 9 -7 25 -4 33
8 20 44 21 44 1z m-1410 -107 c0 -9 3 -9 12 0 19 19 28 14 28 -17 0 -17 5 -33
10 -36 6 -4 8 -10 5 -15 -8 -13 14 -52 25 -45 5 3 21 -18 35 -47 15 -29 32
-60 39 -68 26 -30 65 -109 56 -115 -5 -3 -11 -1 -15 5 -4 6 -10 8 -15 5 -12
-8 -100 15 -127 33 -13 8 -23 20 -23 28 0 8 -6 11 -15 8 -9 -4 -15 0 -15 10 0
9 -4 16 -8 16 -4 0 -15 13 -25 29 -16 27 -16 28 8 39 14 6 31 9 39 6 10 -4 13
0 9 14 -3 14 2 21 19 25 18 5 20 9 10 19 -6 6 -12 20 -12 31 0 11 -11 22 -30
28 -16 6 -30 15 -30 21 0 5 -5 6 -11 3 -6 -4 -5 2 3 14 14 23 28 28 28 9z
m764 -173 c27 -41 49 -57 58 -42 5 8 8 5 8 -8 0 -34 63 -66 131 -68 32 -1 59
-5 59 -8 0 -3 23 -20 50 -37 56 -35 61 -47 24 -56 -19 -5 -30 -2 -39 10 -11
16 -14 16 -43 -4 -40 -29 -48 -28 -68 10 -16 30 -24 43 -52 73 -21 24 -51 18
-58 -10 -3 -14 -11 -25 -16 -25 -6 0 -8 7 -5 15 5 11 -1 13 -26 11 -32 -4 -86
-20 -119 -37 -12 -6 -18 -5 -18 2 0 5 -4 7 -10 4 -5 -3 -10 -13 -10 -21 0 -15
-23 -44 -34 -44 -4 0 -4 11 0 25 5 19 2 25 -11 25 -13 0 -15 -3 -7 -12 7 -9 6
-17 -5 -27 -12 -11 -14 -11 -12 0 3 29 -2 39 -18 39 -17 0 -63 59 -63 79 0 6
8 15 18 21 15 10 14 11 -6 7 -18 -4 -29 4 -53 40 -17 24 -29 46 -26 49 2 2 21
-3 43 -13 51 -21 86 -17 157 18 40 21 68 44 90 75 l32 46 5 -54 c3 -30 14 -67
24 -83z m-1080 21 c-3 -7 1 -20 9 -27 7 -8 12 -20 9 -28 -3 -8 0 -11 7 -7 7 5
11 -3 11 -21 0 -38 23 -133 32 -133 5 0 8 -11 8 -25 0 -30 -25 -34 -40 -5 -6
11 -17 20 -25 20 -10 0 -15 10 -15 30 0 21 -4 28 -14 24 -7 -3 -16 2 -19 10
-4 9 -13 16 -21 16 -7 0 -17 7 -20 16 -5 13 -4 14 7 6 16 -13 28 -6 21 12 -3
7 7 21 21 32 14 10 25 24 25 31 0 16 -12 17 -28 1 -9 -9 -13 -7 -18 5 -7 18 3
40 16 32 4 -3 10 2 14 10 3 8 10 15 15 15 6 0 8 -6 5 -14z m-728 -136 c5 -29
8 -31 13 -16 5 13 10 16 15 8 12 -20 126 -102 141 -102 8 0 15 -5 15 -11 0 -5
4 -8 9 -5 15 9 64 -13 83 -37 9 -12 20 -18 25 -14 4 5 1 12 -7 17 -8 5 -11 12
-7 17 5 4 11 3 15 -2 13 -19 57 -32 79 -24 12 4 37 36 57 71 19 35 44 68 55
75 18 11 22 8 40 -31 12 -23 21 -52 21 -64 0 -12 6 -22 14 -22 8 0 13 -11 12
-27 -1 -16 -6 -27 -12 -26 -15 3 -38 -52 -29 -67 9 -14 25 -3 19 14 -3 7 2 19
11 26 14 11 20 9 43 -20 15 -18 40 -46 56 -62 28 -28 28 -29 10 -43 -18 -14
-18 -14 5 -10 13 2 29 1 34 -2 23 -14 68 -13 73 1 5 13 12 13 52 0 29 -8 48
-10 50 -4 8 22 24 8 18 -15 -4 -14 -2 -26 4 -26 13 -2 29 -6 33 -9 1 -1 11 -3
22 -5 11 -2 25 -12 32 -21 10 -14 13 -14 13 -3 1 10 5 9 15 -5 9 -12 15 -15
15 -7 0 7 6 11 14 8 9 -4 21 5 31 19 9 14 29 30 43 35 54 18 74 135 27 153
-10 3 -15 12 -11 21 3 8 1 17 -4 20 -14 9 -12 49 2 63 9 9 9 12 -1 12 -7 0 -9
5 -5 11 5 8 10 6 16 -5 5 -9 7 -20 3 -25 -3 -5 -1 -12 5 -16 15 -9 25 24 11
38 -15 15 -14 28 2 24 6 -1 17 -13 24 -27 7 -14 12 -19 13 -12 0 7 5 10 12 6
7 -5 9 -2 5 9 -4 11 -2 14 9 10 7 -3 14 -9 14 -14 0 -4 7 -6 15 -3 8 4 15 1
15 -5 0 -6 11 -11 25 -11 21 0 25 -5 25 -29 0 -31 -27 -51 -36 -26 -4 8 -14
15 -23 15 -14 -1 -14 -2 1 -14 10 -7 15 -16 11 -19 -3 -4 -2 -7 3 -8 11 -1 42
-6 68 -12 26 -5 31 -21 11 -40 -8 -9 -15 -22 -15 -31 0 -8 -5 -18 -11 -21 -12
-8 -29 -49 -35 -85 -11 -64 -13 -67 -61 -82 -90 -28 -309 -11 -398 31 -117 55
-170 72 -183 59 -11 -11 42 -134 66 -153 7 -6 16 -23 20 -40 6 -21 30 -44 93
-87 46 -31 89 -57 95 -58 6 0 21 -11 33 -24 17 -18 22 -32 17 -50 -3 -15 -11
-26 -16 -26 -5 0 -20 -11 -34 -25 -14 -14 -31 -25 -39 -25 -8 0 -29 -7 -47
-16 -18 -9 -48 -18 -67 -19 -18 -1 -42 -11 -52 -21 -21 -24 -37 -94 -21 -94 7
0 8 -6 0 -19 -12 -24 -13 -34 -1 -27 13 9 46 -82 46 -129 0 -22 -3 -62 -7 -90
-6 -37 -5 -46 3 -35 9 13 10 12 5 -3 -3 -10 -6 -31 -7 -45 l0 -27 -16 23 c-8
12 -22 22 -30 22 -8 0 -21 7 -29 15 -17 17 -39 21 -29 5 16 -26 -16 -5 -67 44
-44 43 -56 62 -62 95 -3 23 -10 40 -15 37 -5 -3 -14 0 -20 8 -13 16 -9 66 8
110 6 16 14 45 16 65 3 20 7 47 10 61 11 52 -24 275 -45 290 -16 11 -41 73
-36 86 3 8 2 12 -3 9 -5 -3 -12 4 -16 15 -3 11 -11 20 -17 20 -6 0 -25 16 -42
35 -18 19 -36 32 -39 28 -4 -3 -7 3 -7 15 0 26 -20 34 -42 15 -11 -10 -18 -11
-23 -4 -3 6 -1 11 6 11 20 0 -24 29 -43 30 -10 0 -18 -4 -18 -10 0 -5 5 -10
11 -10 5 0 8 -4 5 -9 -4 -5 -1 -22 4 -37 13 -32 5 -78 -11 -68 -6 3 -8 13 -5
21 4 10 2 13 -8 10 -9 -4 -34 13 -64 42 -27 27 -70 59 -96 71 -25 13 -46 26
-46 30 0 3 -22 14 -49 25 -30 11 -52 26 -55 38 -4 15 0 18 15 14 10 -3 19 -4
19 -2 0 2 3 11 6 19 5 12 2 15 -10 10 -12 -5 -16 0 -17 17 0 22 -1 23 -8 4 -8
-19 -8 -19 -15 3 -4 12 -12 22 -18 22 -6 0 -8 8 -6 18 4 13 -1 18 -15 19 -11
1 -24 8 -28 15 -8 12 -13 4 -10 -15 1 -5 -3 -5 -9 -2 -6 4 -9 14 -6 22 4 9 -3
23 -15 34 -27 24 -39 24 -37 2 3 -40 -3 -74 -12 -68 -5 3 -7 12 -3 20 3 8 1
15 -5 15 -7 0 -6 19 2 53 14 59 6 97 -19 97 -9 0 -13 4 -10 10 3 5 19 8 34 6
16 -2 55 5 87 15 76 24 88 24 81 -1 -3 -11 -1 -20 4 -20 5 0 9 8 9 18 0 10 5
23 12 30 19 19 85 -36 94 -78z m-546 -70 c5 8 12 11 16 7 4 -4 2 -13 -4 -19
-15 -15 -16 -62 -2 -53 6 3 10 1 10 -4 0 -6 -5 -11 -11 -11 -5 0 -7 -5 -3 -12
5 -7 12 -5 22 8 13 18 14 17 9 -11 -9 -50 2 -85 27 -85 21 1 21 1 2 15 -18 14
-19 20 -8 77 6 35 16 64 22 66 6 2 7 8 4 13 -3 6 -11 5 -20 -2 -11 -9 -14 -8
-14 4 0 25 23 37 43 22 14 -10 15 -18 8 -38 -5 -14 -15 -28 -20 -32 -6 -3 -11
-15 -11 -26 0 -11 5 -17 10 -14 6 3 10 14 10 25 0 10 7 21 16 24 14 5 16 1 11
-29 -3 -19 -2 -35 4 -35 5 0 9 -9 9 -20 0 -11 5 -20 12 -20 6 0 9 -3 6 -6 -4
-3 -17 1 -30 10 -24 16 -24 15 -25 -19 -1 -24 3 -33 10 -29 7 4 4 -1 -5 -11
-14 -15 -20 -16 -32 -5 -9 7 -16 9 -16 4 0 -5 -6 -2 -13 6 -15 19 -57 24 -57
7 0 -6 -13 2 -29 18 -21 22 -26 34 -20 47 6 11 5 24 -3 37 -9 15 -8 22 5 36
21 21 22 39 1 31 -9 -3 -20 -6 -25 -6 -4 0 -6 -8 -2 -17 3 -10 3 -15 -2 -11
-12 11 -14 57 -3 64 10 7 58 -14 71 -31 4 -5 5 7 3 27 -2 20 -1 39 2 43 4 4 8
-8 10 -26 3 -23 6 -29 12 -19z m3058 -220 c3 -7 0 -10 -5 -7 -5 3 -15 2 -23
-3 -13 -8 -12 -11 3 -23 17 -12 17 -14 4 -26 -9 -7 -43 -16 -76 -21 -69 -10
-126 -27 -157 -47 -23 -15 -34 -9 -34 19 0 13 10 20 30 24 16 4 40 16 52 29
52 50 118 75 144 54 7 -6 16 -4 24 6 15 18 32 15 38 -5z m785 -134 c3 -7 8
-34 12 -59 6 -39 10 -44 28 -40 17 4 19 2 8 -5 -12 -9 -12 -13 -2 -26 11 -13
10 -17 -4 -22 -10 -4 -21 -1 -26 7 -7 11 -9 9 -9 -8 0 -12 -4 -24 -9 -28 -10
-6 1 -48 25 -93 8 -15 13 -19 16 -10 4 10 8 10 19 2 10 -8 20 -8 35 0 19 10
20 15 9 46 -8 23 -14 30 -18 20 -4 -12 -6 -12 -6 2 -1 9 4 20 9 23 6 3 7 17 4
31 -3 13 -4 24 -2 24 11 0 145 -137 151 -153 4 -11 12 -15 18 -11 8 4 9 3 5
-5 -4 -6 -2 -18 4 -26 7 -8 9 -24 5 -37 l-8 -22 -18 23 c-18 22 -19 22 -19 3
0 -12 -4 -23 -9 -26 -5 -3 -12 -23 -16 -43 -4 -21 -9 -42 -13 -47 -9 -16 -4
-169 8 -237 13 -73 55 -166 81 -180 15 -7 24 -5 41 11 24 23 39 25 55 9 8 -8
16 -7 30 1 16 11 23 9 45 -11 14 -13 44 -36 67 -51 38 -26 41 -31 41 -73 0
-42 -3 -48 -35 -66 -19 -12 -35 -25 -35 -29 0 -12 -37 -23 -50 -15 -12 8 5 56
27 72 9 7 14 15 11 18 -2 3 -26 -11 -51 -31 -55 -43 -62 -43 -192 22 -110 55
-131 75 -114 106 21 41 31 49 44 38 19 -16 30 7 13 27 -9 12 -10 15 0 9 24
-14 24 24 1 97 -12 39 -31 78 -41 85 -10 7 -18 20 -18 29 0 9 -7 21 -16 27 -8
6 -16 18 -18 26 -10 50 -20 70 -36 70 -9 0 -25 9 -35 20 -9 10 -20 18 -24 18
-3 -1 -21 6 -39 15 -32 18 -58 60 -46 78 3 5 -2 9 -10 9 -20 0 -76 55 -76 75
0 8 -11 20 -23 26 -19 9 -24 19 -25 52 -1 34 1 39 9 24 10 -18 11 -18 24 0 7
10 10 22 5 28 -4 5 -11 27 -14 49 -7 36 -6 38 13 33 14 -3 21 0 21 8 0 7 3 15
8 18 4 2 1 2 -5 1 -9 -2 -13 8 -13 28 0 29 1 30 13 13 9 -11 19 -15 27 -10 9
5 11 4 6 -3 -4 -7 -4 -17 0 -23 5 -8 9 -8 14 1 6 9 10 6 15 -9 9 -28 35 -27
36 2 1 16 2 18 6 5 2 -10 13 -18 24 -18 11 0 17 -4 14 -10 -3 -5 -1 -10 4 -10
14 0 14 31 1 66 -11 29 -7 54 9 54 5 0 11 -6 14 -14z m-1511 -151 c-6 -33 16
-33 24 1 4 17 11 23 21 20 8 -3 21 -6 28 -6 8 0 30 -13 48 -30 19 -16 40 -30
46 -30 15 0 14 -37 -1 -46 -6 -4 -14 -2 -16 4 -7 22 -59 13 -80 -13 -29 -36
-56 -32 -69 10 -10 32 -9 36 11 41 13 3 23 11 23 18 0 10 -6 10 -27 -2 -31
-18 -88 -9 -72 11 6 7 10 16 10 22 1 9 27 23 48 24 7 1 9 -9 6 -24z m681 1 c6
-15 -13 -36 -50 -55 -18 -9 -23 -20 -23 -48 0 -58 21 -112 52 -134 15 -11 28
-30 29 -42 0 -13 3 -16 6 -9 4 10 15 4 39 -19 19 -18 34 -37 34 -42 0 -4 11
-23 25 -41 31 -41 33 -66 5 -59 -21 6 -27 -6 -10 -23 11 -11 2 -54 -11 -54 -5
0 -9 10 -9 23 0 24 -12 48 -26 50 -5 1 -10 11 -11 22 -4 56 -5 60 -10 46 -6
-15 -43 51 -43 75 0 7 -16 21 -36 30 -19 9 -42 27 -50 39 -10 16 -21 20 -42
17 -27 -3 -30 0 -40 40 -25 98 -25 108 -1 134 47 50 160 82 172 50z m-1182
-320 c0 -12 3 -15 6 -8 2 6 11 12 18 12 7 0 15 6 18 13 3 8 11 5 24 -10 23
-26 38 -30 29 -8 -3 8 -2 15 2 16 43 5 52 5 52 -1 0 -4 12 -6 28 -4 26 4 26 4
-5 -11 -17 -8 -34 -24 -38 -35 -7 -23 -16 -25 -33 -8 -9 9 -12 9 -12 -1 0 -7
-4 -9 -10 -6 -5 3 -10 0 -10 -8 0 -16 -49 -37 -86 -37 -20 0 -24 6 -29 48 -12
90 -11 94 20 80 14 -6 25 -20 26 -32z m2511 -21 c4 -5 8 -22 8 -37 0 -28 15
-38 22 -16 7 20 33 -11 49 -57 8 -22 22 -48 32 -57 15 -13 16 -21 7 -37 -12
-24 -14 -25 -41 -10 -18 9 -19 7 -13 -15 3 -15 2 -26 -2 -26 -15 0 -74 94 -74
116 0 11 -3 24 -6 27 -4 4 -8 25 -10 47 -2 23 -9 50 -14 60 -17 31 -12 41 13
28 12 -7 25 -17 29 -23z m-3631 -264 c11 18 11 12 -1 -31 l-10 -35 20 25 c13
17 20 20 20 10 0 -8 -14 -28 -31 -44 -33 -31 -37 -71 -12 -112 7 -11 10 -24 6
-27 -3 -4 -1 -7 5 -7 7 0 12 -7 12 -15 0 -8 8 -19 19 -24 21 -12 34 -48 20
-57 -5 -3 -9 4 -9 15 0 12 -4 21 -10 21 -15 0 1 -32 32 -63 30 -30 53 -67 42
-67 -3 0 -15 10 -25 23 l-20 22 6 -22 c5 -19 2 -23 -14 -23 -16 0 -21 7 -22
28 0 15 -3 21 -6 15 -7 -19 -21 -16 -19 5 0 9 -5 16 -12 14 -7 -1 -20 11 -30
27 -12 19 -22 27 -30 22 -16 -10 -5 -41 14 -41 8 0 18 -8 21 -17 4 -10 15 -27
25 -37 10 -11 15 -22 12 -25 -4 -3 -9 0 -11 7 -3 6 -9 12 -14 12 -12 0 42 -79
54 -80 4 0 6 4 5 9 -2 5 2 9 7 10 6 0 10 -7 10 -17 1 -9 6 -16 13 -14 7 1 12
-5 12 -14 0 -8 -4 -12 -10 -9 -5 3 -10 1 -10 -5 0 -21 25 -4 28 20 4 22 4 22
31 -7 15 -16 32 -28 39 -25 7 2 12 -1 12 -8 0 -6 5 -8 10 -5 6 3 10 1 10 -4 0
-6 8 -11 17 -11 9 0 13 -3 9 -7 -19 -19 -61 -7 -79 21 -14 22 -21 26 -30 17
-9 -9 -8 -14 3 -21 8 -5 11 -13 6 -17 -5 -4 -11 -2 -13 5 -3 6 -11 12 -19 12
-9 0 -12 -4 -9 -10 8 -13 -4 -13 -44 1 -27 10 -36 24 -32 52 0 4 -3 7 -9 7 -5
0 -10 -7 -10 -15 0 -20 -6 -19 -30 5 -12 12 -26 17 -36 13 -10 -4 -22 1 -30
11 -7 10 -17 15 -23 11 -6 -3 -11 -2 -11 3 0 5 -10 12 -22 16 -18 5 -20 8 -9
15 8 5 9 11 3 15 -6 3 -12 0 -15 -6 -3 -10 -9 -8 -24 5 -11 9 -23 14 -27 10
-4 -4 -3 4 3 19 11 29 6 39 -15 31 -13 -5 -19 14 -15 40 2 12 -26 37 -33 30
-3 -4 -6 3 -6 14 0 16 5 21 23 18 43 -5 56 -16 55 -46 -1 -34 10 -49 21 -30 5
8 3 28 -5 48 -12 27 -12 34 -2 32 7 -1 24 3 38 9 14 6 20 11 13 11 -12 1 -7
29 6 41 4 3 22 26 41 52 36 49 54 58 63 34 4 -11 1 -13 -10 -9 -11 4 -14 2 -9
-5 4 -7 14 -12 23 -12 11 0 14 6 10 22 -4 12 -2 27 2 32 13 17 22 78 11 71 -6
-3 -10 -13 -10 -21 0 -8 -4 -13 -9 -9 -13 7 -10 48 4 58 7 6 6 10 -3 14 -6 2
-9 9 -6 15 3 5 15 -5 26 -23 15 -25 22 -29 29 -18z m1898 40 c10 -6 31 -29 47
-53 16 -24 35 -47 41 -51 7 -4 13 -16 13 -26 0 -10 12 -28 26 -42 14 -13 32
-36 40 -52 13 -25 13 -28 -3 -34 -9 -4 -19 -1 -21 5 -5 17 -32 15 -38 -3 -5
-12 -10 -13 -20 -5 -18 16 -6 43 17 37 24 -6 25 9 2 17 -11 5 -22 1 -30 -10
-14 -20 -17 -44 -5 -44 4 0 8 -11 8 -25 2 -30 -7 -32 -24 -5 -7 12 -8 20 -2
20 5 0 1 21 -9 48 -10 26 -26 80 -36 120 -9 40 -21 75 -26 78 -10 6 -12 34 -3
34 3 0 13 -4 23 -9z m2681 -636 c0 -28 -3 -33 -17 -28 -12 4 -9 -3 10 -22 17
-18 24 -32 18 -39 -14 -18 -18 -96 -5 -96 13 0 28 -30 19 -38 -3 -3 -5 0 -5 7
0 7 -4 10 -9 6 -13 -7 -31 27 -31 59 0 19 -5 26 -20 26 -10 0 -23 8 -29 17
-12 22 -17 17 -26 -24 -6 -31 -5 -33 19 -33 24 0 25 -2 14 -25 -6 -14 -19 -25
-29 -25 -26 0 -32 17 -12 29 17 10 17 10 0 11 -10 0 -15 5 -12 10 4 6 1 17 -5
25 -7 8 -9 23 -5 32 3 10 5 19 3 20 -7 4 47 53 58 53 7 0 18 -8 23 -17 14 -24
14 -7 1 18 -8 15 -7 23 5 35 8 8 15 20 15 25 0 5 5 9 10 9 6 0 10 -16 10 -35z
m-3260 -444 c0 -36 -19 -68 -33 -55 -3 3 -21 1 -39 -4 -50 -16 -127 -22 -133
-11 -4 5 -17 7 -30 5 -13 -2 -26 1 -28 8 -3 6 -17 12 -32 14 -27 2 -50 22 -58
52 -3 13 5 11 42 -6 29 -14 60 -21 83 -19 27 2 41 -1 48 -13 9 -16 9 -16 10 0
0 12 14 21 43 29 23 6 47 15 52 19 6 4 21 10 35 13 14 2 28 5 33 6 4 0 7 -16
7 -38z m244 -187 c6 -10 15 -22 21 -26 12 -9 7 -68 -7 -85 -7 -9 -7 -13 1 -13
20 0 51 20 51 33 0 8 -4 7 -10 -3 -13 -20 -18 -10 -10 20 l6 25 22 -35 c12
-19 20 -41 17 -49 -3 -8 -1 -17 4 -20 5 -3 11 -15 13 -26 2 -14 -3 -21 -19
-23 -14 -2 -23 2 -23 10 0 10 -2 10 -8 1 -9 -14 -52 -6 -52 9 0 6 -9 23 -21
39 -11 16 -16 29 -10 29 6 0 11 5 11 10 0 6 -6 9 -12 8 -7 -2 -12 3 -10 10 1
6 -1 11 -5 11 -19 -3 -33 2 -33 11 0 5 7 7 15 3 9 -3 15 -2 13 3 -1 5 1 26 6
47 8 40 22 44 40 11z m324 -428 c7 -4 19 -3 26 3 22 18 48 2 42 -25 -7 -25 1
-54 15 -54 5 0 6 14 3 30 -9 41 2 38 21 -6 19 -45 19 -62 1 -79 -12 -12 -19
-10 -49 18 -19 17 -40 48 -45 67 l-10 35 -1 -37 c-1 -36 -3 -38 -32 -38 -20 0
-40 -9 -59 -28 -22 -22 -32 -27 -50 -20 l-23 8 21 23 c11 12 24 34 27 50 4 15
12 27 18 27 6 0 7 3 3 7 -4 4 -15 8 -23 8 -23 0 -28 23 -6 27 24 5 105 -6 121
-16z"/>
<path d="M1830 7805 c-7 -13 -18 -23 -23 -22 -6 1 -11 -2 -12 -8 0 -5 -4 -16
-8 -22 -5 -7 -4 -13 1 -13 6 0 8 -9 5 -19 -4 -16 3 -22 36 -31 23 -6 41 -14
41 -18 0 -5 16 -6 35 -4 19 2 43 1 52 -3 10 -5 23 -9 28 -10 6 0 17 -4 25 -7
31 -13 60 -16 66 -7 3 5 10 6 16 3 21 -13 121 -15 130 -2 6 10 8 10 8 1 0 -7
7 -13 15 -13 10 0 15 7 13 18 -2 11 2 16 12 14 8 -2 12 0 8 4 -4 4 -3 14 4 21
9 11 9 16 -1 23 -8 5 -12 20 -9 38 5 34 -17 35 -27 1 -8 -26 -29 -24 -22 1 4
18 2 20 -16 14 -39 -12 -76 -44 -70 -59 3 -8 0 -15 -6 -15 -6 0 -11 6 -11 14
0 26 -18 27 -22 1 -3 -13 -2 -22 3 -20 4 3 10 1 13 -4 9 -14 -21 -21 -33 -7
-6 7 -8 16 -5 19 3 3 3 10 0 16 -4 6 -23 1 -51 -13 -24 -13 -45 -20 -47 -15
-2 5 -20 10 -41 11 -26 1 -37 6 -37 17 0 13 -2 13 -9 2 -6 -9 -18 -11 -32 -8
-28 7 -54 43 -39 52 6 4 14 -4 19 -17 9 -21 10 -20 10 13 1 19 5 39 10 45 6 5
4 14 -4 21 -10 9 -15 6 -25 -12z"/>
<path d="M6557 14185 c6 -39 -1 -43 -29 -18 -14 13 -18 13 -18 2 0 -25 36
-152 64 -224 48 -127 33 -221 -65 -418 -31 -62 -36 -101 -17 -142 17 -38 43
-30 87 28 22 28 56 72 75 97 20 25 41 55 48 68 6 12 17 21 23 18 8 -3 13 9 13
37 0 23 1 94 2 157 2 100 -1 125 -23 192 -27 77 -57 133 -112 201 -39 48 -56
48 -48 2z"/>
<path d="M8050 11378 c-28 -51 -60 -86 -60 -65 0 8 -9 22 -19 31 -18 17 -20
16 -32 -21 -15 -43 -15 -138 -1 -156 11 -14 48 -161 57 -227 5 -33 1 -57 -13
-90 -27 -62 -29 -157 -5 -176 11 -8 13 -13 6 -14 -7 0 -13 -6 -13 -14 0 -8 -6
-16 -12 -19 -22 -7 -4 -17 20 -10 16 4 21 11 17 23 -3 9 1 23 10 30 13 10 15
9 15 -9 0 -11 4 -21 9 -21 13 0 20 37 9 48 -7 7 -3 12 10 16 21 7 56 48 86
101 l17 30 -5 -40 c-3 -22 -6 -52 -6 -67 0 -15 -7 -34 -16 -42 -8 -9 -11 -16
-5 -16 6 0 11 -8 12 -17 0 -13 3 -12 10 5 5 13 17 26 27 29 24 6 59 59 76 117
13 42 13 60 0 144 -14 89 -48 205 -74 249 -28 50 -80 178 -80 199 0 36 -13 29
-40 -18z"/>
<path d="M8284 10185 c-10 -15 -14 -34 -10 -48 4 -19 2 -23 -16 -22 -11 1 -27
10 -35 21 -14 19 -14 18 -31 -4 -12 -15 -24 -21 -35 -16 -11 4 -19 0 -24 -12
-6 -16 -7 -16 -15 2 -6 14 -7 12 -3 -9 4 -19 -1 -34 -15 -49 -21 -23 -19 -38
3 -20 11 10 13 2 12 -41 0 -28 5 -94 12 -146 12 -90 19 -108 88 -241 10 -19
21 -42 25 -50 4 -8 21 -16 38 -18 27 -3 35 2 59 40 25 39 58 130 84 233 6 24
8 89 4 160 -6 107 -9 123 -31 150 -13 17 -34 45 -47 62 -27 39 -41 41 -63 8z"/>
<path d="M400 10037 c6 -50 35 -141 53 -162 4 -5 26 -35 48 -65 51 -70 131
-152 189 -195 33 -24 64 -37 113 -45 62 -11 108 -8 94 7 -4 3 3 20 15 37 14
19 16 26 6 18 -14 -11 -18 -11 -25 0 -4 7 -38 28 -76 46 -61 29 -66 34 -57 52
14 26 -3 91 -36 142 -13 21 -24 42 -24 46 0 15 -92 97 -143 126 -30 18 -66 30
-98 32 -27 2 -53 5 -57 8 -5 3 -5 -19 -2 -47z"/>
<path d="M8588 9549 c5 -36 -31 -79 -113 -135 -27 -18 -74 -55 -102 -82 -47
-43 -53 -53 -53 -89 0 -42 22 -65 44 -43 5 5 28 10 51 10 73 0 195 89 221 162
23 63 10 169 -24 196 -24 18 -29 15 -24 -19z"/>
<path d="M394 8826 c-3 -9 -14 -18 -25 -21 -10 -4 -19 -13 -19 -21 0 -9 -13
-28 -29 -44 -26 -27 -73 -113 -99 -185 -18 -50 -42 -172 -42 -214 0 -40 26
-81 51 -81 5 0 27 -13 47 -29 35 -28 52 -35 80 -32 14 1 17 37 3 45 -32 20
-16 236 24 318 14 28 25 61 25 73 0 12 9 30 21 41 21 19 59 85 59 101 -2 35
-85 77 -96 49z"/>
<path d="M1370 7250 c0 -5 -11 -10 -24 -10 -13 0 -29 -7 -36 -15 -7 -8 -18
-15 -25 -15 -6 0 -26 -7 -42 -15 -29 -15 -30 -18 -22 -53 5 -20 9 -41 9 -47 0
-5 4 -4 9 4 5 8 16 11 25 8 10 -4 16 -1 16 7 0 8 -5 16 -12 18 -9 3 -9 6 0 12
7 4 15 0 19 -11 11 -31 39 -53 52 -40 6 6 11 17 11 25 0 7 4 11 9 7 5 -3 12 3
15 13 6 18 5 122 -1 122 -2 0 -3 -4 -3 -10z"/>
<path d="M750 6921 c0 -5 5 -13 10 -16 6 -3 10 -17 10 -30 0 -13 4 -27 10 -30
6 -4 4 -14 -4 -28 -11 -17 -13 -37 -7 -87 5 -39 4 -76 -2 -93 -14 -42 -2 -126
23 -149 11 -10 21 -24 22 -31 0 -7 2 -23 3 -37 4 -38 20 -71 54 -109 16 -19
28 -38 25 -43 -9 -13 4 -9 20 8 9 8 16 11 16 5 0 -5 -4 -13 -10 -16 -5 -3 -10
-11 -10 -16 0 -6 5 -7 10 -4 6 3 10 0 10 -7 0 -8 7 -23 16 -34 8 -10 13 -13 9
-6 -3 6 -1 12 5 12 7 0 5 9 -4 22 -20 28 -21 49 -1 42 8 -4 12 -10 9 -16 -3
-5 6 -27 22 -49 15 -22 24 -42 21 -45 -3 -3 -12 7 -21 23 -12 23 -15 24 -15 8
0 -11 5 -28 13 -37 11 -16 15 -16 34 -2 12 8 22 23 23 32 2 27 17 -29 18 -65
1 -22 8 -36 22 -44 15 -8 19 -8 15 0 -4 6 -2 11 3 11 6 0 11 8 12 18 0 10 3
12 6 5 2 -7 4 -15 3 -18 0 -3 9 -14 22 -25 17 -13 28 -16 41 -8 10 5 23 7 30
4 7 -2 4 -5 -5 -5 -27 -1 -22 -20 7 -27 15 -4 34 0 49 9 14 9 33 13 46 10 17
-4 21 -3 16 6 -5 8 -3 11 5 10 30 -6 80 14 95 36 9 13 16 45 17 71 2 53 -15
71 -87 89 -34 8 -40 14 -38 32 3 20 0 22 -27 17 -24 -5 -41 0 -70 19 -44 29
-112 99 -148 152 -13 20 -29 33 -34 29 -6 -3 -9 0 -8 7 4 21 -11 61 -37 94
-13 17 -37 64 -55 105 -17 41 -37 82 -45 91 -8 8 -14 20 -14 26 0 6 -7 16 -15
23 -13 11 -15 8 -15 -14 0 -37 -13 -32 -46 17 -35 51 -54 72 -54 58z"/>
<path d="M8225 6741 c-3 -5 0 -22 5 -37 15 -39 5 -119 -18 -144 -10 -11 -27
-45 -38 -75 -10 -30 -21 -55 -25 -55 -4 0 -10 -8 -13 -18 -10 -32 -156 -170
-202 -191 -24 -12 -48 -21 -54 -21 -16 0 -12 -30 5 -37 9 -3 24 2 33 10 21 19
57 16 57 -6 0 -26 16 -33 31 -13 8 11 14 17 14 13 0 -14 105 50 114 70 6 13
20 20 39 21 33 1 86 50 127 117 20 34 24 56 28 145 3 88 1 108 -12 119 -9 7
-16 20 -16 29 0 19 -67 85 -75 73z"/>
<path d="M4540 5064 c0 -43 20 -81 68 -132 13 -14 15 -25 12 -59 -2 -35 29
-72 69 -83 20 -5 52 -23 71 -40 18 -16 37 -30 41 -30 4 0 14 -6 21 -13 14 -15
47 -34 118 -68 91 -44 317 -16 335 42 4 10 15 21 26 24 10 4 19 11 19 16 0 6
-4 7 -10 4 -5 -3 -10 -2 -10 2 0 5 9 14 21 21 15 10 18 16 10 26 -6 7 -8 16
-5 19 4 3 4 17 0 30 -5 21 -20 41 -82 108 -10 11 -41 18 -102 22 -68 5 -118
17 -232 57 -155 54 -224 65 -245 37 -11 -15 -14 -15 -24 -3 -7 8 -25 16 -39
18 -16 2 -31 12 -37 26 -15 35 -25 26 -25 -24z"/>
</g>
</svg>
